{"glyphs":{"0":{"ha":881,"x_min":42,"x_max":839,"o":"m 42 486 q 70 267 42 361 q 151 108 99 172 q 278 12 204 44 q 442 -21 351 -21 q 605 12 532 -21 q 730 108 678 44 q 810 267 782 172 q 839 486 839 361 q 810 706 839 611 q 730 864 782 800 q 605 960 678 928 q 442 993 532 993 q 278 960 351 993 q 151 864 204 928 q 70 706 99 800 q 42 486 42 611 m 299 488 q 309 622 299 565 q 338 714 319 678 q 383 767 357 750 q 442 785 410 785 q 499 767 474 785 q 544 714 525 750 q 572 622 563 678 q 582 488 582 565 q 572 353 582 410 q 544 259 563 296 q 499 205 525 222 q 442 188 474 188 q 383 205 410 188 q 338 259 357 222 q 309 353 319 296 q 299 488 299 410 z "},"1":{"ha":474,"x_min":28,"x_max":432,"o":"m 432 0 l 432 972 l 182 972 l 182 0 l 432 0 m 28 785 l 432 785 l 432 972 l 28 972 l 28 785 z "},"2":{"ha":753,"x_min":42,"x_max":711,"o":"m 224 96 q 321 167 269 128 q 423 254 372 207 q 521 355 474 301 q 604 465 568 408 q 662 581 640 521 q 683 700 683 640 q 661 811 683 758 q 595 904 639 864 q 486 969 551 944 q 336 993 421 993 q 247 982 290 993 q 165 953 204 971 q 95 912 126 935 q 42 864 64 889 l 158 704 q 194 729 175 715 q 235 756 213 743 q 282 776 257 768 q 335 785 307 785 q 377 778 358 785 q 408 760 396 771 q 427 735 421 749 q 433 708 433 722 q 406 616 433 668 q 327 501 378 564 q 204 363 276 438 q 43 201 132 288 l 224 96 m 43 0 l 711 0 l 711 201 l 43 201 l 43 0 z "},"3":{"ha":821,"x_min":42,"x_max":779,"o":"m 217 400 l 351 400 q 463 420 400 400 q 581 479 525 440 q 675 577 636 518 q 714 713 714 636 q 691 816 714 765 q 624 906 668 867 q 515 969 581 946 q 365 993 450 993 q 276 982 319 993 q 194 953 233 971 q 124 912 156 935 q 71 864 93 889 l 188 704 q 223 729 204 715 q 264 756 242 743 q 311 776 286 768 q 365 785 336 785 q 408 776 389 785 q 439 753 426 768 q 458 719 451 739 q 464 676 464 700 q 455 629 464 651 q 429 590 446 607 q 388 563 413 574 q 329 553 363 553 l 217 553 l 217 400 m 217 553 l 217 400 l 351 400 q 482 365 435 400 q 529 282 529 331 q 520 241 529 258 q 494 212 511 224 q 453 194 478 200 q 394 188 428 188 q 321 197 356 188 q 257 218 286 206 q 203 244 228 231 q 158 268 178 258 l 42 108 q 101 60 65 83 q 181 19 138 38 q 276 -10 225 1 q 378 -21 326 -21 q 551 3 476 -21 q 676 70 625 28 q 753 169 728 113 q 779 289 779 225 q 742 417 779 367 q 647 498 706 468 q 515 540 588 528 q 369 553 442 553 l 217 553 z "},"4":{"ha":829,"x_min":28,"x_max":801,"o":"m 679 0 l 679 972 l 544 972 l 429 715 l 429 0 l 679 0 m 28 206 l 801 206 l 801 386 l 28 386 l 28 206 m 217 313 l 679 972 l 439 972 l 28 386 l 217 313 z "},"5":{"ha":821,"x_min":42,"x_max":779,"o":"m 186 622 l 133 442 l 382 442 q 452 431 424 442 q 497 401 481 419 q 522 359 514 383 q 529 307 529 335 q 520 254 529 276 q 494 217 511 232 q 453 195 478 203 q 394 188 428 188 q 321 197 356 188 q 257 218 286 206 q 203 244 228 231 q 158 268 178 258 l 42 108 q 101 60 65 83 q 181 19 138 38 q 276 -10 225 1 q 378 -21 326 -21 q 551 6 476 -21 q 676 81 625 33 q 753 191 728 128 q 779 326 779 254 q 747 469 779 413 q 662 560 715 526 q 540 608 608 594 q 400 622 472 622 l 186 622 m 203 771 l 724 771 l 724 972 l 203 972 l 203 771 m 133 442 l 329 442 l 399 972 l 203 972 l 133 442 z "},"6":{"ha":836,"x_min":42,"x_max":794,"o":"m 435 -21 q 583 -2 517 -21 q 696 56 649 17 q 769 156 743 94 q 794 301 794 217 q 767 458 794 397 q 692 555 739 519 q 582 603 644 590 q 450 617 519 617 q 360 606 411 617 q 261 557 308 596 q 181 443 214 518 q 149 239 149 368 l 281 239 q 288 306 281 271 q 312 369 294 340 q 358 417 329 399 q 429 436 386 436 q 472 429 453 436 q 506 408 492 422 q 529 372 521 394 q 538 321 538 350 q 507 225 538 263 q 426 188 476 188 q 374 205 397 188 q 333 259 350 222 q 308 353 317 296 q 299 488 299 410 q 310 626 299 569 q 343 718 322 683 q 393 768 364 753 q 457 783 422 783 q 513 775 488 783 q 559 754 538 767 q 599 728 581 742 q 633 703 617 714 l 750 863 q 698 910 728 888 q 632 952 668 933 q 553 982 596 971 q 463 993 510 993 q 290 962 368 993 q 158 867 213 931 q 72 709 103 804 q 42 486 42 614 q 70 267 42 361 q 150 108 99 172 q 274 12 201 44 q 435 -21 347 -21 z "},"7":{"ha":775,"x_min":42,"x_max":733,"o":"m 392 0 l 733 771 l 483 771 l 142 0 l 392 0 m 42 771 l 733 771 l 733 972 l 42 972 l 42 771 z "},"8":{"ha":826,"x_min":42,"x_max":785,"o":"m 42 251 q 68 135 42 186 q 144 50 94 85 q 262 -3 193 15 q 414 -21 331 -21 q 566 -1 497 -21 q 683 57 635 18 q 758 153 732 96 q 785 288 785 211 q 759 412 785 361 q 687 498 733 463 q 574 557 640 533 q 424 597 507 581 q 386 608 404 601 q 354 625 368 614 q 332 652 340 636 q 324 692 324 668 q 349 762 324 739 q 414 785 374 785 q 478 760 454 785 q 501 683 501 735 q 490 644 501 661 q 458 612 478 626 q 414 583 439 597 q 364 553 389 569 l 447 465 q 555 507 500 488 q 655 553 610 526 q 729 619 700 581 q 758 715 758 657 q 734 835 758 783 q 665 922 710 888 q 556 975 619 957 q 414 993 492 993 q 272 974 336 993 q 163 917 208 954 q 92 822 117 879 q 67 690 67 765 q 77 616 67 653 q 124 543 88 579 q 228 471 160 507 q 414 397 297 435 q 456 383 435 390 q 492 365 476 376 q 518 336 508 354 q 528 290 528 318 q 497 213 528 238 q 414 188 467 188 q 367 193 388 188 q 331 210 346 199 q 307 240 315 222 q 299 281 299 257 q 315 335 299 308 q 356 386 332 363 q 408 431 381 410 q 454 469 435 453 l 364 553 q 279 508 333 533 q 172 448 225 483 q 81 365 119 413 q 42 251 42 317 z "},"9":{"ha":836,"x_min":42,"x_max":794,"o":"m 401 993 q 254 974 321 993 q 140 917 188 956 q 67 817 93 878 q 42 671 42 756 q 69 514 42 575 q 144 417 97 453 q 254 369 192 382 q 386 356 317 356 q 477 366 425 356 q 576 415 529 376 q 655 529 622 454 q 688 733 688 604 l 556 733 q 549 667 556 701 q 524 603 542 632 q 478 555 507 574 q 407 536 450 536 q 365 543 385 536 q 330 564 344 550 q 307 600 315 578 q 299 651 299 622 q 329 747 299 710 q 410 785 360 785 q 463 767 439 785 q 503 713 486 750 q 528 619 519 676 q 538 485 538 563 q 526 346 538 403 q 494 254 515 289 q 444 204 474 219 q 379 189 415 189 q 324 198 349 189 q 277 219 299 207 q 238 246 256 232 q 203 269 219 260 l 86 110 q 138 62 108 85 q 204 20 168 39 q 283 -10 240 1 q 374 -21 326 -21 q 546 10 468 -21 q 678 105 624 42 q 764 263 733 168 q 794 486 794 358 q 766 706 794 611 q 686 864 738 800 q 562 960 635 928 q 401 993 489 993 z "}," ":{"ha":361,"x_min":0,"x_max":0,"o":""},"A":{"ha":931,"x_min":-28,"x_max":958,"o":"m -28 0 l 240 0 l 540 814 l 569 972 l 361 972 l -28 0 m 161 167 l 764 167 l 764 354 l 161 354 l 161 167 m 958 0 l 569 972 l 361 972 l 390 814 l 690 0 l 958 0 z "},"B":{"ha":919,"x_min":42,"x_max":878,"o":"m 150 407 l 446 407 q 566 383 525 407 q 607 304 607 360 q 560 235 607 256 q 436 215 514 215 l 150 215 l 150 0 l 456 0 q 628 21 550 0 q 761 81 706 42 q 847 176 817 119 q 878 304 878 232 q 864 398 878 358 q 825 465 850 438 q 764 513 800 493 q 683 547 728 532 l 683 486 q 774 574 742 519 q 806 704 806 628 q 778 827 806 776 q 701 910 751 878 q 582 958 651 943 q 426 972 513 972 l 146 972 l 146 757 l 428 757 q 471 752 451 757 q 504 738 490 747 q 526 714 518 728 q 535 683 535 700 q 531 654 535 669 q 515 626 526 639 q 482 603 503 613 q 428 594 461 594 l 150 594 l 150 407 m 42 0 l 306 0 l 306 972 l 42 972 l 42 0 z "},"C":{"ha":913,"x_min":42,"x_max":871,"o":"m 665 276 q 611 223 644 244 q 524 201 578 201 q 435 222 475 201 q 369 279 396 242 q 327 369 342 317 q 313 486 313 422 q 323 603 313 551 q 356 693 333 656 q 413 751 378 731 q 496 771 447 771 q 571 756 538 771 q 628 715 604 742 l 810 857 q 689 956 769 919 q 486 993 608 993 q 299 957 382 993 q 160 854 217 921 q 72 694 103 788 q 42 486 42 600 q 74 278 42 372 q 167 118 107 185 q 312 15 228 51 q 500 -21 396 -21 q 643 -6 582 -21 q 749 36 704 10 q 823 96 793 63 q 871 165 853 129 l 665 276 z "},"D":{"ha":976,"x_min":42,"x_max":935,"o":"m 42 0 l 306 0 l 306 972 l 42 972 l 42 0 m 150 0 l 432 0 q 638 33 546 0 q 797 129 731 67 q 899 282 863 192 q 935 486 935 372 q 899 690 935 600 q 797 843 863 781 q 638 939 731 906 q 432 972 546 972 l 146 972 l 146 757 l 439 757 q 603 687 542 757 q 664 486 664 617 q 648 372 664 422 q 603 286 632 321 q 532 233 574 251 q 439 215 490 215 l 150 215 l 150 0 z "},"E":{"ha":797,"x_min":42,"x_max":756,"o":"m 42 0 l 306 0 l 306 972 l 42 972 l 42 0 m 194 393 l 654 393 l 654 581 l 194 581 l 194 393 m 194 757 l 728 757 l 728 972 l 194 972 l 194 757 m 194 0 l 756 0 l 756 215 l 194 215 l 194 0 z "},"F":{"ha":728,"x_min":42,"x_max":700,"o":"m 42 0 l 306 0 l 306 972 l 42 972 l 42 0 m 194 393 l 626 393 l 626 581 l 194 581 l 194 393 m 194 757 l 700 757 l 700 972 l 194 972 l 194 757 z "},"G":{"ha":931,"x_min":42,"x_max":889,"o":"m 626 240 q 574 213 607 225 q 503 201 542 201 q 423 222 458 201 q 363 279 388 242 q 326 369 339 317 q 313 486 313 422 q 324 603 313 551 q 361 693 336 656 q 426 751 386 731 q 519 771 465 771 q 604 756 567 771 q 665 715 642 742 l 847 857 q 722 956 807 919 q 510 993 638 993 q 313 957 400 993 q 166 854 226 921 q 74 694 106 788 q 42 486 42 600 q 73 278 42 372 q 163 118 104 185 q 308 15 222 51 q 503 -21 393 -21 q 625 -5 565 -21 q 735 37 685 11 q 826 95 786 63 q 889 161 865 128 l 626 240 m 625 42 l 889 161 l 889 476 l 625 476 l 625 42 m 483 381 l 889 381 l 889 568 l 483 568 l 483 381 z "},"H":{"ha":965,"x_min":42,"x_max":924,"o":"m 42 0 l 306 0 l 306 972 l 42 972 l 42 0 m 660 0 l 924 0 l 924 972 l 660 972 l 660 0 m 167 393 l 836 393 l 836 581 l 167 581 l 167 393 z "},"I":{"ha":347,"x_min":42,"x_max":306,"o":"m 42 0 l 306 0 l 306 972 l 42 972 l 42 0 z "},"J":{"ha":664,"x_min":14,"x_max":622,"o":"m 358 972 l 358 331 q 353 270 358 294 q 337 231 347 246 q 312 208 326 215 q 281 201 297 201 q 235 215 257 201 q 193 254 213 229 l 14 157 q 131 31 54 83 q 325 -21 208 -21 q 463 4 406 -21 q 555 75 519 29 q 606 185 590 121 q 622 328 622 250 l 622 972 l 358 972 z "},"K":{"ha":924,"x_min":42,"x_max":924,"o":"m 42 0 l 306 0 l 306 972 l 42 972 l 42 0 m 626 0 l 924 0 l 510 669 l 321 494 l 626 0 m 251 222 l 860 972 l 565 972 l 190 510 l 251 222 z "},"L":{"ha":769,"x_min":42,"x_max":728,"o":"m 42 0 l 306 0 l 306 972 l 42 972 l 42 0 m 194 0 l 728 0 l 728 215 l 194 215 l 194 0 z "},"M":{"ha":1182,"x_min":42,"x_max":1140,"o":"m 42 0 l 306 0 l 306 972 l 42 972 l 42 0 m 42 972 l 104 811 l 504 147 l 678 147 l 690 333 l 306 972 l 42 972 m 1140 0 l 1140 972 l 876 972 l 876 0 l 1140 0 m 1140 972 l 876 972 l 492 333 l 504 147 l 678 147 l 1078 811 l 1140 972 z "},"N":{"ha":940,"x_min":42,"x_max":899,"o":"m 42 0 l 306 0 l 306 972 l 42 972 l 42 0 m 635 0 l 899 0 l 899 972 l 635 972 l 635 0 m 42 972 l 104 811 l 621 0 l 899 0 l 832 146 l 306 972 l 42 972 z "},"O":{"ha":1051,"x_min":42,"x_max":1010,"o":"m 42 486 q 76 278 42 372 q 175 118 111 185 q 328 15 239 51 q 526 -21 417 -21 q 724 15 635 -21 q 877 118 814 51 q 975 278 940 185 q 1010 486 1010 372 q 975 694 1010 600 q 877 854 940 788 q 724 957 814 921 q 526 993 635 993 q 328 957 417 993 q 175 854 239 921 q 76 694 111 788 q 42 486 42 600 m 313 486 q 328 603 313 551 q 371 693 343 656 q 438 751 399 731 q 526 771 478 771 q 614 751 575 771 q 681 693 653 731 q 724 603 708 656 q 739 486 739 551 q 724 369 739 422 q 681 279 708 317 q 614 222 653 242 q 526 201 575 201 q 438 222 478 201 q 371 279 399 242 q 328 369 343 317 q 313 486 313 422 z "},"P":{"ha":872,"x_min":42,"x_max":831,"o":"m 42 0 l 306 0 l 306 972 l 42 972 l 42 0 m 150 326 l 394 326 q 574 349 493 326 q 711 413 654 371 q 799 514 768 454 q 831 649 831 574 q 799 785 831 725 q 711 886 768 844 q 574 950 654 928 q 394 972 493 972 l 146 972 l 146 757 l 379 757 q 511 729 463 757 q 560 649 560 701 q 511 569 560 597 q 381 542 463 542 l 150 542 l 150 326 z "},"Q":{"ha":1051,"x_min":42,"x_max":1010,"o":"m 42 486 q 76 278 42 372 q 175 118 111 185 q 328 15 239 51 q 526 -21 417 -21 q 724 15 635 -21 q 877 118 814 51 q 975 278 940 185 q 1010 486 1010 372 q 975 694 1010 600 q 877 854 940 788 q 724 957 814 921 q 526 993 635 993 q 328 957 417 993 q 175 854 239 921 q 76 694 111 788 q 42 486 42 600 m 313 486 q 328 603 313 551 q 371 693 343 656 q 438 751 399 731 q 526 771 478 771 q 614 751 575 771 q 681 693 653 731 q 724 603 708 656 q 739 486 739 551 q 724 369 739 422 q 681 279 708 317 q 614 222 653 242 q 526 201 575 201 q 438 222 478 201 q 371 279 399 242 q 328 369 343 317 q 313 486 313 422 m 688 -222 l 913 -222 l 671 179 l 446 179 l 688 -222 z "},"R":{"ha":879,"x_min":42,"x_max":879,"o":"m 42 0 l 306 0 l 306 972 l 42 972 l 42 0 m 150 356 l 394 356 q 574 376 493 356 q 711 437 654 397 q 799 533 768 476 q 831 663 831 590 q 799 793 831 736 q 711 890 768 850 q 574 951 654 931 q 394 972 493 972 l 146 972 l 146 757 l 379 757 q 511 733 463 757 q 560 663 560 708 q 511 594 560 618 q 381 571 463 571 l 150 571 l 150 356 m 582 0 l 879 0 l 574 494 l 276 494 l 582 0 z "},"S":{"ha":825,"x_min":42,"x_max":783,"o":"m 381 364 q 450 344 419 353 q 502 324 481 335 q 535 301 524 314 q 547 269 547 289 q 537 238 547 251 q 509 217 526 225 q 468 205 492 208 q 418 201 444 201 q 358 207 386 201 q 305 223 329 213 q 259 249 281 233 q 219 285 238 265 l 42 149 q 210 20 111 61 q 418 -21 308 -21 q 572 4 504 -21 q 688 72 640 29 q 759 172 735 114 q 783 296 783 229 q 768 395 783 350 q 719 478 753 440 q 634 547 686 515 q 510 604 582 578 q 421 637 456 624 q 366 661 386 650 q 338 683 346 672 q 329 707 329 693 q 336 733 329 721 q 357 753 343 744 q 393 766 371 761 q 444 771 415 771 q 544 756 497 771 q 622 721 590 742 l 750 888 q 622 965 706 936 q 443 993 539 993 q 288 969 354 993 q 179 904 222 946 q 115 805 136 863 q 93 678 93 747 q 111 572 93 619 q 165 484 129 524 q 256 415 201 444 q 381 364 310 385 z "},"T":{"ha":860,"x_min":42,"x_max":818,"o":"m 297 0 l 561 0 l 561 972 l 297 972 l 297 0 m 42 757 l 818 757 l 818 972 l 42 972 l 42 757 z "},"U":{"ha":931,"x_min":42,"x_max":889,"o":"m 889 972 l 625 972 l 625 379 q 582 248 625 294 q 467 201 539 201 q 350 248 394 201 q 306 379 306 294 l 306 972 l 42 972 l 42 379 q 72 213 42 286 q 158 87 103 139 q 292 7 214 35 q 467 -21 371 -21 q 640 7 563 -21 q 773 87 718 35 q 858 213 828 139 q 889 379 889 286 l 889 972 z "},"V":{"ha":931,"x_min":-28,"x_max":958,"o":"m -28 972 l 361 0 l 569 0 l 540 158 l 240 972 l -28 972 m 958 972 l 690 972 l 390 158 l 361 0 l 569 0 l 958 972 z "},"W":{"ha":1343,"x_min":-28,"x_max":1371,"o":"m -28 972 l 319 0 l 528 0 l 503 158 l 240 972 l -28 972 m 792 972 l 551 972 l 340 158 l 319 0 l 528 0 l 792 972 m 1371 972 l 1103 972 l 840 158 l 815 0 l 1024 0 l 1371 972 m 551 972 l 815 0 l 1024 0 l 1003 158 l 792 972 l 551 972 z "},"X":{"ha":951,"x_min":0,"x_max":951,"o":"m 640 0 l 951 0 l 339 972 l 28 972 l 640 0 m 536 392 l 932 972 l 651 972 l 367 554 l 536 392 m 396 581 l 0 0 l 281 0 l 565 418 l 396 581 z "},"Y":{"ha":954,"x_min":0,"x_max":954,"o":"m 593 540 l 311 972 l 0 972 l 346 442 l 544 442 l 593 540 m 601 454 l 954 972 l 674 972 l 389 554 l 493 454 l 601 454 m 346 0 l 610 0 l 610 499 l 346 499 l 346 0 z "},"Z":{"ha":815,"x_min":42,"x_max":774,"o":"m 353 215 l 739 757 l 428 757 l 42 215 l 353 215 m 57 757 l 739 757 l 739 972 l 57 972 l 57 757 m 42 0 l 774 0 l 774 215 l 42 215 l 42 0 z "},".":{"ha":333,"x_min":42,"x_max":292,"o":"m 42 104 q 76 13 42 47 q 167 -21 110 -21 q 258 13 224 -21 q 292 104 292 47 q 258 195 292 161 q 167 229 224 229 q 76 195 110 229 q 42 104 42 161 z "},"a":{"ha":817,"x_min":42,"x_max":789,"o":"m 539 0 l 789 0 l 789 694 l 539 694 l 539 0 m 42 347 q 67 197 42 264 q 136 81 93 129 q 235 6 179 32 q 350 -21 290 -21 q 435 -6 396 -21 q 502 40 474 10 q 546 113 531 69 q 561 213 561 157 l 561 478 q 546 581 561 536 q 503 655 531 625 q 438 700 476 685 q 350 715 399 715 q 235 689 290 715 q 136 614 179 663 q 67 498 93 565 q 42 347 42 431 m 299 347 q 308 413 299 383 q 332 463 317 442 q 370 495 347 483 q 419 507 393 507 q 469 495 447 507 q 506 463 490 483 q 531 413 522 442 q 539 347 539 383 q 531 282 539 311 q 506 232 522 253 q 469 199 490 211 q 419 188 447 188 q 370 199 393 188 q 332 232 347 211 q 308 282 317 253 q 299 347 299 311 z "},"b":{"ha":831,"x_min":42,"x_max":789,"o":"m 292 0 l 292 1042 l 42 1042 l 42 0 l 292 0 m 789 347 q 763 498 789 431 q 694 614 738 565 q 596 689 651 663 q 481 715 540 715 q 394 699 433 715 q 327 651 354 682 q 285 574 300 619 q 269 469 269 528 l 269 208 q 285 111 269 154 q 328 39 300 68 q 396 -6 357 10 q 481 -21 435 -21 q 596 6 540 -21 q 694 81 651 32 q 763 197 738 129 q 789 347 789 264 m 532 347 q 523 282 532 311 q 499 232 514 253 q 461 199 483 211 q 411 188 439 188 q 363 199 385 188 q 324 232 340 211 q 300 282 308 253 q 292 347 292 311 q 300 413 292 383 q 324 463 308 442 q 363 495 340 483 q 411 507 385 507 q 461 495 439 507 q 499 463 483 483 q 523 413 514 442 q 532 347 532 383 z "},"c":{"ha":758,"x_min":42,"x_max":717,"o":"m 546 263 q 492 202 522 217 q 429 188 461 188 q 369 199 394 188 q 329 232 344 210 q 306 287 314 254 q 299 361 299 319 q 309 432 299 404 q 337 476 319 460 q 376 500 354 493 q 418 507 397 507 q 480 490 451 507 q 524 444 508 472 l 694 556 q 579 672 656 628 q 399 715 503 715 q 256 690 322 715 q 143 617 190 665 q 69 501 96 569 q 42 347 42 433 q 69 197 42 264 q 144 81 96 129 q 261 6 193 32 q 413 -21 329 -21 q 597 18 528 -21 q 717 138 667 57 l 546 263 z "},"d":{"ha":831,"x_min":42,"x_max":789,"o":"m 539 0 l 789 0 l 789 1042 l 539 1042 l 539 0 m 42 347 q 67 197 42 264 q 136 81 93 129 q 235 6 179 32 q 350 -21 290 -21 q 435 -6 396 -21 q 502 39 474 10 q 546 111 531 68 q 561 208 561 154 l 561 469 q 546 574 561 528 q 503 651 531 619 q 438 699 476 682 q 350 715 399 715 q 235 689 290 715 q 136 614 179 663 q 67 498 93 565 q 42 347 42 431 m 299 347 q 308 413 299 383 q 332 463 317 442 q 370 495 347 483 q 419 507 393 507 q 469 495 447 507 q 506 463 490 483 q 531 413 522 442 q 539 347 539 383 q 531 282 539 311 q 506 232 522 253 q 469 199 490 211 q 419 188 447 188 q 370 199 393 188 q 332 232 347 211 q 308 282 317 253 q 299 347 299 311 z "},"e":{"ha":774,"x_min":42,"x_max":732,"o":"m 110 288 l 654 288 l 654 433 l 110 433 l 110 288 m 413 -21 q 610 18 538 -21 q 732 138 682 57 l 561 263 q 497 206 533 224 q 421 189 461 189 q 369 201 392 189 q 330 235 346 213 q 306 292 314 258 q 299 372 299 326 q 330 497 299 458 q 399 535 361 535 q 440 524 422 535 q 471 492 458 513 q 490 444 483 472 q 496 379 496 415 l 496 288 l 725 288 l 725 358 q 699 503 725 438 q 626 615 672 568 q 517 689 581 663 q 378 715 453 715 q 240 689 301 715 q 134 614 178 663 q 66 498 90 565 q 42 347 42 431 q 69 193 42 261 q 147 77 97 125 q 265 4 197 29 q 413 -21 333 -21 z "},"f":{"ha":724,"x_min":14,"x_max":724,"o":"m 724 931 q 628 1005 686 978 q 497 1032 571 1032 q 372 1010 429 1032 q 275 949 315 989 q 212 851 235 908 q 189 721 189 793 l 189 0 l 439 0 l 439 731 q 447 776 439 758 q 466 805 454 794 q 492 819 478 815 q 519 824 507 824 q 565 811 546 824 q 596 776 585 799 l 724 931 m 14 486 l 669 486 l 669 694 l 14 694 l 14 486 z "},"g":{"ha":817,"x_min":42,"x_max":789,"o":"m 539 150 l 789 150 l 789 694 l 539 694 l 539 150 m 42 365 q 67 222 42 286 q 136 110 93 157 q 235 39 179 64 q 350 14 290 14 q 435 28 396 14 q 502 72 474 43 q 546 142 531 100 q 561 236 561 183 l 561 490 q 546 588 561 546 q 503 658 531 629 q 438 701 476 686 q 350 715 399 715 q 235 690 290 715 q 136 619 179 665 q 67 509 93 574 q 42 365 42 444 m 299 365 q 308 423 299 397 q 332 467 317 449 q 370 497 347 486 q 419 507 393 507 q 469 497 447 507 q 506 467 490 486 q 531 423 522 449 q 539 365 539 397 q 531 307 539 333 q 506 262 522 281 q 469 233 490 243 q 419 222 447 222 q 370 233 393 222 q 332 262 347 243 q 308 307 317 281 q 299 365 299 333 m 147 -33 l 42 -224 q 117 -269 75 -250 q 206 -300 160 -287 q 299 -318 251 -312 q 388 -324 346 -324 q 567 -295 492 -324 q 692 -215 643 -267 q 765 -90 742 -162 q 789 72 789 -17 l 789 268 l 539 268 l 539 64 q 495 -67 539 -18 q 363 -115 451 -115 q 241 -90 297 -115 q 147 -33 185 -64 z "},"h":{"ha":800,"x_min":42,"x_max":758,"o":"m 758 407 q 734 549 758 490 q 669 644 710 607 q 576 698 628 681 q 468 715 524 715 q 387 699 424 715 q 324 651 350 682 q 284 574 299 619 q 269 469 269 528 l 269 347 l 292 347 q 321 463 292 419 q 397 507 350 507 q 441 495 421 507 q 476 463 461 483 q 500 413 492 442 q 508 347 508 383 l 508 0 l 758 0 l 758 407 m 292 0 l 292 1042 l 42 1042 l 42 0 l 292 0 z "},"i":{"ha":333,"x_min":28,"x_max":306,"o":"m 42 0 l 292 0 l 292 694 l 42 694 l 42 0 m 28 903 q 66 802 28 840 q 167 764 104 764 q 267 802 229 764 q 306 903 306 840 q 267 1003 306 965 q 167 1042 229 1042 q 66 1003 104 1042 q 28 903 28 965 z "},"j":{"ha":521,"x_min":-14,"x_max":493,"o":"m 189 -282 q 308 -256 254 -282 q 399 -181 361 -229 q 458 -65 438 -132 q 479 86 479 3 l 479 694 l 229 694 l 229 86 q 225 14 229 44 q 211 -36 221 -17 q 188 -65 201 -56 q 153 -74 174 -74 q 119 -66 138 -74 q 78 -33 100 -58 l -14 -218 q 88 -266 35 -250 q 189 -282 140 -282 m 354 764 q 455 802 417 764 q 493 903 493 840 q 455 1003 493 965 q 354 1042 417 1042 q 253 1003 292 1042 q 215 903 215 965 q 253 802 215 840 q 354 764 292 764 z "},"k":{"ha":792,"x_min":42,"x_max":792,"o":"m 329 324 l 526 0 l 792 0 l 514 482 l 329 324 m 486 694 l 269 460 l 269 188 l 292 188 l 760 694 l 486 694 m 292 0 l 292 1042 l 42 1042 l 42 0 l 292 0 z "},"l":{"ha":333,"x_min":42,"x_max":292,"o":"m 292 0 l 292 1042 l 42 1042 l 42 0 l 292 0 z "},"m":{"ha":1106,"x_min":28,"x_max":1064,"o":"m 671 469 q 651 565 671 521 q 601 643 632 610 q 528 696 569 676 q 443 715 488 715 q 367 699 401 715 q 307 651 332 682 q 269 574 282 619 q 256 469 256 528 l 256 347 l 278 347 q 297 463 278 419 q 347 507 317 507 q 376 495 363 507 q 400 463 390 483 q 415 413 410 442 q 421 347 421 383 l 421 0 l 671 0 l 671 469 m 278 0 l 278 694 l 28 694 l 28 0 l 278 0 m 1064 407 q 1041 549 1064 490 q 981 644 1018 607 q 894 698 943 681 q 794 715 846 715 q 719 699 753 715 q 660 651 685 682 q 623 574 636 619 q 610 469 610 528 l 610 347 l 671 347 q 690 463 671 419 q 740 507 710 507 q 769 495 756 507 q 793 463 783 483 q 808 413 803 442 q 814 347 814 383 l 814 0 l 1064 0 l 1064 407 z "},"n":{"ha":800,"x_min":42,"x_max":758,"o":"m 758 407 q 734 549 758 490 q 669 644 710 607 q 576 698 628 681 q 468 715 524 715 q 387 699 424 715 q 324 651 350 682 q 284 574 299 619 q 269 469 269 528 l 269 347 l 292 347 q 321 463 292 419 q 397 507 350 507 q 441 495 421 507 q 476 463 461 483 q 500 413 492 442 q 508 347 508 383 l 508 0 l 758 0 l 758 407 m 292 0 l 292 694 l 42 694 l 42 0 l 292 0 z "},"o":{"ha":819,"x_min":42,"x_max":778,"o":"m 42 347 q 68 197 42 264 q 143 81 94 129 q 259 6 192 32 q 410 -21 326 -21 q 560 6 493 -21 q 676 81 628 32 q 751 197 725 129 q 778 347 778 264 q 751 498 778 431 q 676 614 725 565 q 560 689 628 663 q 410 715 493 715 q 259 689 326 715 q 143 614 192 663 q 68 498 94 565 q 42 347 42 431 m 299 347 q 307 413 299 383 q 330 463 315 442 q 365 495 344 483 q 410 507 385 507 q 456 495 435 507 q 491 463 476 483 q 513 413 506 442 q 521 347 521 383 q 513 282 521 311 q 491 232 506 253 q 456 199 476 211 q 410 188 435 188 q 365 199 385 188 q 330 232 344 211 q 307 282 315 253 q 299 347 299 311 z "},"p":{"ha":831,"x_min":42,"x_max":789,"o":"m 292 -278 l 292 694 l 42 694 l 42 -278 l 292 -278 m 789 347 q 763 498 789 431 q 694 614 738 565 q 596 689 651 663 q 481 715 540 715 q 394 699 433 715 q 327 651 354 682 q 285 574 300 619 q 269 469 269 528 l 269 208 q 285 111 269 154 q 328 39 300 68 q 396 -6 357 10 q 481 -21 435 -21 q 596 6 540 -21 q 694 81 651 32 q 763 197 738 129 q 789 347 789 264 m 532 347 q 523 282 532 311 q 499 232 514 253 q 461 199 483 211 q 411 188 439 188 q 363 199 385 188 q 324 232 340 211 q 300 282 308 253 q 292 347 292 311 q 300 413 292 383 q 324 463 308 442 q 363 495 340 483 q 411 507 385 507 q 461 495 439 507 q 499 463 483 483 q 523 413 514 442 q 532 347 532 383 z "},"q":{"ha":831,"x_min":42,"x_max":789,"o":"m 539 -278 l 789 -278 l 789 694 l 539 694 l 539 -278 m 42 347 q 67 197 42 264 q 136 81 93 129 q 235 6 179 32 q 350 -21 290 -21 q 435 -6 396 -21 q 502 39 474 10 q 546 111 531 68 q 561 208 561 154 l 561 469 q 546 574 561 528 q 503 651 531 619 q 438 699 476 682 q 350 715 399 715 q 235 689 290 715 q 136 614 179 663 q 67 498 93 565 q 42 347 42 431 m 299 347 q 308 413 299 383 q 332 463 317 442 q 370 495 347 483 q 419 507 393 507 q 469 495 447 507 q 506 463 490 483 q 531 413 522 442 q 539 347 539 383 q 531 282 539 311 q 506 232 522 253 q 469 199 490 211 q 419 188 447 188 q 370 199 393 188 q 332 232 347 211 q 308 282 317 253 q 299 347 299 311 z "},"r":{"ha":585,"x_min":28,"x_max":571,"o":"m 278 347 q 289 400 278 376 q 319 441 300 424 q 363 467 338 458 q 415 476 388 476 q 470 467 447 476 q 506 446 493 457 l 571 696 q 519 711 546 707 q 465 715 493 715 q 351 684 399 715 q 278 593 303 653 l 278 694 l 28 694 l 28 0 l 278 0 l 278 347 z "},"s":{"ha":717,"x_min":42,"x_max":675,"o":"m 304 251 q 375 236 344 242 q 426 226 406 231 q 456 215 446 221 q 467 200 467 210 q 455 183 467 189 q 426 173 443 176 q 390 168 408 169 q 360 167 372 167 q 315 169 339 167 q 267 180 292 172 q 220 200 243 188 q 179 232 197 213 l 42 103 q 194 6 113 32 q 364 -21 275 -21 q 494 -1 436 -21 q 592 51 551 18 q 653 131 632 85 q 675 231 675 176 q 660 304 675 271 q 615 365 646 338 q 535 415 583 393 q 418 456 486 438 q 356 471 381 465 q 315 481 331 476 q 292 492 299 486 q 285 507 285 497 q 292 520 285 515 q 309 528 299 525 q 333 532 319 531 q 360 533 346 533 q 457 517 413 533 q 526 482 501 501 l 649 615 q 531 688 604 663 q 369 714 458 714 q 247 697 301 714 q 155 648 193 679 q 97 574 117 617 q 76 479 76 531 q 136 330 76 382 q 304 251 196 278 z "},"t":{"ha":708,"x_min":14,"x_max":722,"o":"m 722 101 l 594 256 q 564 221 583 233 q 518 208 544 208 q 491 213 506 208 q 465 227 476 217 q 445 256 453 238 q 438 301 438 274 l 438 928 l 188 928 l 188 311 q 210 181 188 239 q 274 83 233 124 q 371 22 314 43 q 496 0 428 0 q 627 27 569 0 q 722 101 685 54 m 14 486 l 639 486 l 639 694 l 14 694 l 14 486 z "},"u":{"ha":786,"x_min":42,"x_max":758,"o":"m 42 288 q 66 146 42 204 q 131 51 90 88 q 224 -3 172 14 q 332 -21 276 -21 q 413 -4 376 -21 q 476 44 450 13 q 517 121 503 75 q 531 225 531 167 l 531 347 l 508 347 q 480 231 508 275 q 403 188 451 188 q 359 199 379 188 q 324 232 339 211 q 300 282 308 253 q 292 347 292 311 l 292 694 l 42 694 l 42 288 m 508 694 l 508 0 l 758 0 l 758 694 l 508 694 z "},"v":{"ha":714,"x_min":-28,"x_max":742,"o":"m 258 0 l 454 0 l 454 101 l 229 694 l -28 694 l 258 0 m 456 0 l 742 694 l 485 694 l 260 101 l 260 0 l 456 0 z "},"w":{"ha":1046,"x_min":-28,"x_max":1074,"o":"m 214 0 l 410 0 l 410 67 l 229 694 l -28 694 l 214 0 m 410 0 l 651 694 l 394 694 l 214 67 l 214 0 l 410 0 m 636 0 l 832 0 l 832 67 l 651 694 l 394 694 l 636 0 m 832 0 l 1074 694 l 817 694 l 636 67 l 636 0 l 832 0 z "},"x":{"ha":817,"x_min":-14,"x_max":817,"o":"m 6 694 l 504 0 l 811 0 l 313 694 l 6 694 m 542 694 l 325 428 l 408 231 l 431 231 l 817 694 l 542 694 m 261 0 l 472 267 l 389 464 l 367 464 l -14 0 l 261 0 z "},"y":{"ha":763,"x_min":0,"x_max":763,"o":"m 536 101 l 763 694 l 506 694 l 294 125 q 274 65 285 99 q 249 0 263 31 q 217 -52 235 -31 q 176 -74 200 -74 q 135 -66 157 -74 q 92 -33 114 -58 l 0 -218 q 100 -266 49 -250 q 199 -282 151 -282 q 319 -251 268 -282 q 408 -167 369 -219 q 477 -44 447 -114 q 536 101 507 25 m 285 10 l 422 10 l 485 163 l 285 694 l 28 694 l 285 10 z "},"z":{"ha":685,"x_min":28,"x_max":657,"o":"m 632 486 l 428 607 l 28 208 l 233 89 l 632 486 m 38 486 l 632 486 l 632 694 l 38 694 l 38 486 m 28 0 l 657 0 l 657 208 l 28 208 l 28 0 z "},",":{"ha":346,"x_min":42,"x_max":304,"o":"m 42 -174 l 132 -174 l 304 228 l 83 228 l 42 -174 z "},"/":{"ha":688,"x_min":0,"x_max":688,"o":"m 0 0 l 153 0 l 688 972 l 535 972 l 0 0 z "},"-":{"ha":472,"x_min":42,"x_max":431,"o":"m 42 301 l 431 301 l 431 454 l 42 454 l 42 301 z "},"Æ":{"ha":1292,"x_min":-28,"x_max":1250,"o":"m -28 0 l 240 0 l 540 814 l 569 972 l 361 972 l -28 0 m 188 167 l 706 167 l 706 354 l 188 354 l 188 167 m 536 0 l 800 0 l 800 972 l 536 972 l 536 0 m 689 393 l 1149 393 l 1149 581 l 689 581 l 689 393 m 361 757 l 1222 757 l 1222 972 l 361 972 l 361 757 m 689 0 l 1250 0 l 1250 215 l 689 215 l 689 0 z "},"Œ":{"ha":1339,"x_min":42,"x_max":1297,"o":"m 736 393 l 1196 393 l 1196 581 l 736 581 l 736 393 m 736 757 l 1269 757 l 1269 972 l 736 972 l 736 757 m 736 0 l 1297 0 l 1297 215 l 736 215 l 736 0 m 769 0 l 781 215 l 526 215 q 438 236 478 215 q 371 294 399 257 q 328 383 343 332 q 313 497 313 435 q 328 608 313 560 q 371 689 343 656 q 438 740 399 722 q 526 757 478 757 l 674 757 l 674 972 l 526 972 q 328 940 417 972 q 175 846 239 907 q 76 697 111 785 q 42 497 42 608 q 76 293 42 385 q 175 136 111 201 q 328 35 239 71 q 526 0 417 0 l 769 0 m 583 0 l 847 0 l 847 972 l 583 972 l 583 0 z "},"+":{"ha":597,"x_min":42,"x_max":556,"o":"m 42 357 l 556 357 l 556 510 l 42 510 l 42 357 m 222 690 l 222 176 l 375 176 l 375 690 l 222 690 z "},"Þ":{"ha":872,"x_min":42,"x_max":831,"o":"m 42 0 l 306 0 l 306 972 l 42 972 l 42 0 m 150 164 l 394 164 q 574 186 493 164 q 711 250 654 208 q 799 351 768 292 q 831 486 831 411 q 799 622 831 563 q 711 724 768 682 q 574 788 654 765 q 394 810 493 810 l 146 810 l 146 594 l 379 594 q 511 567 463 594 q 560 486 560 539 q 511 407 560 435 q 381 379 463 379 l 150 379 l 150 164 z "},"þ":{"ha":831,"x_min":42,"x_max":789,"o":"m 292 -278 l 292 1042 l 42 1042 l 42 -278 l 292 -278 m 789 347 q 763 498 789 431 q 694 614 738 565 q 596 689 651 663 q 481 715 540 715 q 394 699 433 715 q 327 651 354 682 q 285 574 300 619 q 269 469 269 528 l 269 208 q 285 111 269 154 q 328 39 300 68 q 396 -6 357 10 q 481 -21 435 -21 q 596 6 540 -21 q 694 81 651 32 q 763 197 738 129 q 789 347 789 264 m 532 347 q 523 282 532 311 q 499 232 514 253 q 461 199 483 211 q 411 188 439 188 q 363 199 385 188 q 324 232 340 211 q 300 282 308 253 q 292 347 292 311 q 300 413 292 383 q 324 463 308 442 q 363 495 340 483 q 411 507 385 507 q 461 495 439 507 q 499 463 483 483 q 523 413 514 442 q 532 347 532 383 z "},"*":{"ha":733,"x_min":42,"x_max":692,"o":"m 286 1042 l 321 715 l 404 715 l 439 1042 l 286 1042 m 631 917 l 346 753 l 379 678 l 692 776 l 631 917 m 643 532 l 392 743 l 333 688 l 532 426 l 643 532 m 103 917 l 42 776 l 354 678 l 388 753 l 103 917 m 90 532 l 201 426 l 400 688 l 342 743 l 90 532 z "},"^":{"ha":728,"x_min":42,"x_max":686,"o":"m 288 972 l 42 357 l 194 357 l 440 972 l 288 972 m 440 972 l 288 972 l 533 357 l 686 357 l 440 972 z "},"ß":{"ha":869,"x_min":42,"x_max":828,"o":"m 715 768 q 676 908 715 856 q 580 988 636 960 q 465 1024 524 1015 q 365 1032 406 1032 q 126 949 211 1032 q 42 721 42 867 l 42 0 l 292 0 l 292 731 q 299 776 292 758 q 319 805 307 794 q 345 819 331 815 q 372 824 360 824 q 403 818 388 824 q 431 801 418 813 q 451 774 443 790 q 458 739 458 758 q 451 699 458 717 q 431 665 443 681 q 406 633 419 649 q 380 602 392 618 q 360 568 368 586 q 353 528 353 550 q 369 476 353 494 q 409 444 385 457 q 462 419 433 431 q 515 389 490 408 q 555 338 539 369 q 571 256 571 307 q 565 207 571 225 q 551 180 560 189 q 534 169 543 171 q 518 167 525 167 q 485 179 503 167 q 456 232 468 192 l 318 103 q 425 6 368 32 q 544 -21 482 -21 q 647 -4 596 -21 q 738 46 697 13 q 803 131 778 79 q 828 251 828 182 q 801 374 828 328 q 733 448 774 421 q 645 487 693 475 q 557 506 597 499 q 490 521 517 514 q 463 544 463 528 q 481 557 463 551 q 528 571 500 563 q 589 593 556 579 q 650 629 622 607 q 697 685 678 651 q 715 768 715 719 z "},"\\":{"ha":688,"x_min":0,"x_max":688,"o":"m 688 0 l 535 0 l 0 972 l 153 972 l 688 0 z "},":":{"ha":333,"x_min":42,"x_max":292,"o":"m 42 104 q 76 13 42 47 q 167 -21 110 -21 q 258 13 224 -21 q 292 104 292 47 q 258 195 292 161 q 167 229 224 229 q 76 195 110 229 q 42 104 42 161 m 42 576 q 76 485 42 519 q 167 451 110 451 q 258 485 224 451 q 292 576 292 519 q 258 667 292 633 q 167 701 224 701 q 76 667 110 701 q 42 576 42 633 z "},";":{"ha":372,"x_min":42,"x_max":304,"o":"m 42 -174 l 132 -174 l 304 228 l 83 228 l 42 -174 m 42 576 q 76 485 42 519 q 167 451 110 451 q 258 485 224 451 q 292 576 292 519 q 258 667 292 633 q 167 701 224 701 q 76 667 110 701 q 42 576 42 633 z "},"<":{"ha":699,"x_min":42,"x_max":657,"o":"m 42 382 l 657 136 l 657 289 l 42 535 l 42 382 m 42 535 l 42 382 l 657 628 l 657 781 l 42 535 z "},">":{"ha":699,"x_min":42,"x_max":657,"o":"m 657 382 l 42 136 l 42 289 l 657 535 l 657 382 m 657 535 l 657 382 l 42 628 l 42 781 l 657 535 z "},"=":{"ha":597,"x_min":42,"x_max":556,"o":"m 42 494 l 556 494 l 556 647 l 42 647 l 42 494 m 42 189 l 556 189 l 556 342 l 42 342 l 42 189 z "},"!":{"ha":333,"x_min":42,"x_max":292,"o":"m 250 333 l 292 972 l 42 972 l 83 333 l 250 333 m 42 104 q 76 13 42 47 q 167 -21 110 -21 q 258 13 224 -21 q 292 104 292 47 q 258 195 292 161 q 167 229 224 229 q 76 195 110 229 q 42 104 42 161 z "},"?":{"ha":725,"x_min":42,"x_max":683,"o":"m 408 333 l 408 374 q 428 426 408 404 q 479 467 449 447 q 546 508 510 486 q 613 558 582 529 q 663 629 643 588 q 683 732 683 671 q 595 925 683 857 q 336 993 507 993 q 247 982 290 993 q 165 953 204 971 q 95 912 126 935 q 42 864 64 889 l 158 704 q 194 729 175 715 q 235 756 213 743 q 282 776 257 768 q 335 785 307 785 q 377 780 358 785 q 408 765 396 775 q 427 740 421 754 q 433 706 433 725 q 419 661 433 685 q 384 612 406 638 q 338 559 363 586 q 291 503 313 532 q 256 444 269 474 q 242 382 242 414 l 242 333 l 408 333 m 200 104 q 234 13 200 47 q 325 -21 268 -21 q 416 13 382 -21 q 450 104 450 47 q 416 195 450 161 q 325 229 382 229 q 234 195 268 229 q 200 104 200 161 z "},"¡":{"ha":333,"x_min":42,"x_max":292,"o":"m 250 375 l 292 -264 l 42 -264 l 83 375 l 250 375 m 42 604 q 76 695 42 661 q 167 729 110 729 q 258 695 224 729 q 292 604 292 661 q 258 513 292 547 q 167 479 224 479 q 76 513 110 479 q 42 604 42 547 z "},"¿":{"ha":725,"x_min":42,"x_max":683,"o":"m 317 375 l 317 335 q 297 283 317 304 q 246 242 276 261 q 179 201 215 222 q 113 150 143 179 q 62 79 82 121 q 42 -24 42 38 q 130 -217 42 -149 q 389 -285 218 -285 q 478 -274 435 -285 q 560 -244 521 -262 q 630 -203 599 -226 q 683 -156 661 -181 l 567 4 q 531 -21 550 -7 q 490 -47 513 -35 q 443 -68 468 -60 q 390 -76 418 -76 q 348 -71 367 -76 q 317 -56 329 -67 q 298 -31 304 -46 q 292 3 292 -17 q 306 47 292 24 q 341 97 319 71 q 388 149 363 122 q 434 206 413 176 q 469 265 456 235 q 483 326 483 294 l 483 375 l 317 375 m 525 604 q 491 695 525 661 q 400 729 457 729 q 309 695 343 729 q 275 604 275 661 q 309 513 275 547 q 400 479 343 479 q 491 513 457 479 q 525 604 525 547 z "},"|":{"ha":236,"x_min":42,"x_max":194,"o":"m 42 -321 l 194 -321 l 194 1042 l 42 1042 l 42 -321 z "},"(":{"ha":390,"x_min":42,"x_max":376,"o":"m 279 -319 l 376 -319 q 290 -156 325 -236 q 233 6 254 -76 q 203 174 213 88 q 194 361 194 261 q 203 548 194 461 q 233 717 213 635 q 290 878 254 799 q 376 1042 325 958 l 279 1042 q 184 878 228 958 q 108 717 140 799 q 59 548 76 635 q 42 361 42 461 q 59 174 42 261 q 108 6 76 88 q 184 -156 140 -76 q 279 -319 228 -236 z "},")":{"ha":390,"x_min":14,"x_max":349,"o":"m 111 -319 l 14 -319 q 101 -156 65 -236 q 157 6 136 -76 q 187 174 178 88 q 196 361 196 261 q 187 548 196 461 q 157 717 178 635 q 101 878 136 799 q 14 1042 65 958 l 111 1042 q 206 878 163 958 q 282 717 250 799 q 331 548 314 635 q 349 361 349 461 q 331 174 349 261 q 282 6 314 88 q 206 -156 250 -76 q 111 -319 163 -236 z "},"{":{"ha":464,"x_min":42,"x_max":450,"o":"m 322 690 q 322 790 322 742 q 333 875 322 838 q 369 935 343 913 q 450 958 396 958 l 450 1042 q 317 1015 371 1042 q 231 940 264 988 q 184 828 199 892 q 169 692 169 765 q 169 592 169 640 q 159 507 169 544 q 122 447 149 469 q 42 424 96 424 l 42 340 q 174 367 121 340 q 260 442 228 394 q 308 554 293 490 q 322 690 322 618 m 322 74 q 308 210 322 147 q 260 322 293 274 q 174 397 228 369 q 42 424 121 424 l 42 340 q 122 317 96 340 q 159 257 149 294 q 169 172 169 219 q 169 72 169 124 q 184 -65 169 -1 q 231 -176 199 -128 q 317 -251 264 -224 q 450 -278 371 -278 l 450 -194 q 369 -172 396 -194 q 333 -111 343 -149 q 322 -26 322 -74 q 322 74 322 22 z "},"}":{"ha":464,"x_min":14,"x_max":422,"o":"m 142 690 q 142 790 142 742 q 131 875 142 838 q 94 935 121 913 q 14 958 68 958 l 14 1042 q 147 1015 93 1042 q 233 940 200 988 q 280 828 265 892 q 294 692 294 765 q 294 592 294 640 q 305 507 294 544 q 342 447 315 469 q 422 424 368 424 l 422 340 q 290 367 343 340 q 203 442 236 394 q 156 554 171 490 q 142 690 142 618 m 142 74 q 156 210 142 147 q 203 322 171 274 q 290 397 236 369 q 422 424 343 424 l 422 340 q 342 317 368 340 q 305 257 315 294 q 294 172 294 219 q 294 72 294 124 q 280 -65 294 -1 q 233 -176 265 -128 q 147 -251 200 -224 q 14 -278 93 -278 l 14 -194 q 94 -172 68 -194 q 131 -111 121 -149 q 142 -26 142 -74 q 142 74 142 22 z "},"[":{"ha":404,"x_min":42,"x_max":363,"o":"m 42 -321 l 194 -321 l 194 1042 l 42 1042 l 42 -321 m 42 931 l 363 931 l 363 1042 l 42 1042 l 42 931 m 42 -321 l 363 -321 l 363 -210 l 42 -210 l 42 -321 z "},"]":{"ha":404,"x_min":42,"x_max":363,"o":"m 363 -321 l 363 1042 l 210 1042 l 210 -321 l 363 -321 m 363 931 l 363 1042 l 42 1042 l 42 931 l 363 931 m 363 -321 l 363 -210 l 42 -210 l 42 -321 l 363 -321 z "},"æ":{"ha":1383,"x_min":42,"x_max":1342,"o":"m 539 0 l 733 0 l 733 694 l 539 694 l 539 0 m 42 347 q 67 197 42 264 q 136 81 93 129 q 235 6 179 32 q 350 -21 290 -21 q 435 -6 396 -21 q 502 40 474 10 q 546 113 531 69 q 561 213 561 157 l 561 478 q 546 581 561 536 q 503 655 531 625 q 438 700 476 685 q 350 715 399 715 q 235 689 290 715 q 136 614 179 663 q 67 498 93 565 q 42 347 42 431 m 299 347 q 308 413 299 383 q 332 463 317 442 q 370 495 347 483 q 419 507 393 507 q 469 495 447 507 q 506 463 490 483 q 531 413 522 442 q 539 347 539 383 q 531 282 539 311 q 506 232 522 253 q 469 199 490 211 q 419 188 447 188 q 370 199 393 188 q 332 232 347 211 q 308 282 317 253 q 299 347 299 311 m 719 288 l 1264 288 l 1264 433 l 719 433 l 719 288 m 1022 -21 q 1219 18 1147 -21 q 1342 138 1292 57 l 1171 263 q 1107 206 1143 224 q 1031 189 1071 189 q 978 201 1001 189 q 940 235 956 213 q 916 292 924 258 q 908 372 908 326 q 940 497 908 458 q 1008 535 971 535 q 1050 524 1032 535 q 1081 492 1068 513 q 1099 444 1093 472 q 1106 379 1106 415 l 1106 288 l 1335 288 l 1335 358 q 1308 503 1335 438 q 1236 615 1282 568 q 1126 689 1190 663 q 988 715 1063 715 q 849 689 911 715 q 744 614 788 663 q 676 498 700 565 q 651 347 651 431 q 679 193 651 261 q 757 77 707 125 q 875 4 807 29 q 1022 -21 943 -21 z "},"ı":{"ha":333,"x_min":42,"x_max":292,"o":"m 42 0 l 292 0 l 292 694 l 42 694 l 42 0 z "},"'":{"ha":304,"x_min":42,"x_max":263,"o":"m 107 676 l 197 676 l 263 1019 l 42 1019 l 107 676 z "},"\"":{"ha":585,"x_min":42,"x_max":543,"o":"m 107 676 l 197 676 l 263 1019 l 42 1019 l 107 676 m 388 676 l 478 676 l 543 1019 l 322 1019 l 388 676 z "},"#":{"ha":1033,"x_min":42,"x_max":992,"o":"m 42 542 l 992 542 l 992 694 l 42 694 l 42 542 m 129 0 l 282 0 l 565 972 l 413 972 l 129 0 m 496 0 l 649 0 l 932 972 l 779 972 l 496 0 m 42 243 l 992 243 l 992 396 l 42 396 l 42 243 z "},"@":{"ha":1253,"x_min":42,"x_max":1211,"o":"m 388 394 q 403 304 388 344 q 444 235 418 264 q 504 190 471 206 q 572 174 538 174 q 664 210 629 174 q 699 314 699 247 l 699 472 q 665 579 699 543 q 572 615 631 615 q 504 599 538 615 q 444 554 471 583 q 403 485 418 525 q 388 394 388 444 m 542 394 q 562 464 542 438 q 614 490 582 490 q 666 464 646 490 q 686 394 686 438 q 666 325 686 351 q 614 299 646 299 q 562 325 582 299 q 542 394 542 351 m 686 285 q 749 146 686 200 q 938 92 813 92 q 1144 180 1078 92 q 1211 432 1211 268 q 1168 658 1211 556 q 1048 835 1125 761 q 863 951 971 910 q 626 993 756 993 q 388 950 496 993 q 203 828 281 907 q 84 638 126 749 q 42 394 42 528 q 84 151 42 261 q 203 -38 126 40 q 388 -160 281 -117 q 626 -204 496 -204 q 836 -172 740 -204 q 1007 -76 932 -139 l 899 32 q 777 -30 846 -8 q 626 -51 708 -51 q 448 -20 528 -51 q 312 69 368 11 q 225 210 256 128 q 194 394 194 293 q 225 578 194 496 q 312 719 256 661 q 448 809 368 778 q 626 840 528 840 q 805 809 725 840 q 941 724 885 778 q 1028 594 997 669 q 1058 432 1058 519 q 1048 340 1058 376 q 1021 283 1038 304 q 982 253 1004 261 q 935 244 960 244 q 885 256 904 244 q 854 289 865 268 q 840 338 843 310 q 836 397 836 365 l 836 603 l 686 603 l 686 285 z "},"œ":{"ha":1324,"x_min":42,"x_max":1282,"o":"m 42 347 q 68 197 42 264 q 143 81 94 129 q 259 6 192 32 q 410 -21 326 -21 q 560 6 493 -21 q 676 81 628 32 q 751 197 725 129 q 778 347 778 264 q 751 498 778 431 q 676 614 725 565 q 560 689 628 663 q 410 715 493 715 q 259 689 326 715 q 143 614 192 663 q 68 498 94 565 q 42 347 42 431 m 299 347 q 307 413 299 383 q 330 463 315 442 q 365 495 344 483 q 410 507 385 507 q 456 495 435 507 q 491 463 476 483 q 513 413 506 442 q 521 347 521 383 q 513 282 521 311 q 491 232 506 253 q 456 199 476 211 q 410 188 435 188 q 365 199 385 188 q 330 232 344 211 q 307 282 315 253 q 299 347 299 311 m 660 288 l 1204 288 l 1204 433 l 660 433 l 660 288 m 963 -21 q 1160 18 1088 -21 q 1282 138 1232 57 l 1111 263 q 1047 206 1083 224 q 971 189 1011 189 q 919 201 942 189 q 880 235 896 213 q 856 292 864 258 q 849 372 849 326 q 880 497 849 458 q 949 535 911 535 q 990 524 972 535 q 1021 492 1008 513 q 1040 444 1033 472 q 1046 379 1046 415 l 1046 288 l 1275 288 l 1275 358 q 1249 503 1275 438 q 1176 615 1222 568 q 1067 689 1131 663 q 928 715 1003 715 q 790 689 851 715 q 684 614 728 663 q 616 498 640 565 q 592 347 592 431 q 619 193 592 261 q 697 77 647 125 q 815 4 747 29 q 963 -21 883 -21 z "},"$":{"ha":825,"x_min":42,"x_max":783,"o":"m 381 364 q 450 344 419 353 q 502 324 481 335 q 535 301 524 314 q 547 269 547 289 q 537 238 547 251 q 509 217 526 225 q 468 205 492 208 q 418 201 444 201 q 358 207 386 201 q 305 223 329 213 q 259 249 281 233 q 219 285 238 265 l 42 149 q 210 20 111 61 q 418 -21 308 -21 q 572 4 504 -21 q 688 72 640 29 q 759 172 735 114 q 783 296 783 229 q 768 395 783 350 q 719 478 753 440 q 634 547 686 515 q 510 604 582 578 q 421 637 456 624 q 366 661 386 650 q 338 683 346 672 q 329 707 329 693 q 336 733 329 721 q 357 753 343 744 q 393 766 371 761 q 444 771 415 771 q 544 756 497 771 q 622 721 590 742 l 750 888 q 622 965 706 936 q 443 993 539 993 q 288 969 354 993 q 179 904 222 946 q 115 805 136 863 q 93 678 93 747 q 111 572 93 619 q 165 484 129 524 q 256 415 201 444 q 381 364 310 385 m 378 -181 l 489 -181 l 489 1113 l 378 1113 l 378 -181 z "},"€":{"ha":881,"x_min":-64,"x_max":871,"o":"m 665 276 q 611 223 644 244 q 524 201 578 201 q 435 222 475 201 q 369 279 396 242 q 327 369 342 317 q 313 486 313 422 q 323 603 313 551 q 356 693 333 656 q 413 751 378 731 q 496 771 447 771 q 571 756 538 771 q 628 715 604 742 l 810 857 q 689 956 769 919 q 486 993 608 993 q 299 957 382 993 q 160 854 217 921 q 72 694 103 788 q 42 486 42 600 q 74 278 42 372 q 167 118 107 185 q 312 15 228 51 q 500 -21 396 -21 q 643 -6 582 -21 q 749 36 704 10 q 823 96 793 63 q 871 165 853 129 l 665 276 m -64 522 l 549 522 l 549 675 l -64 675 l -64 522 m -64 314 l 549 314 l 549 467 l -64 467 l -64 314 z "},"&":{"ha":1089,"x_min":42,"x_max":1047,"o":"m 714 444 q 703 342 714 389 q 664 260 692 294 q 590 207 636 226 q 475 188 544 188 q 408 193 440 188 q 351 210 375 199 q 313 240 328 222 q 299 281 299 257 q 315 339 299 317 q 353 377 331 361 q 402 406 376 393 q 447 436 428 419 l 364 553 q 279 508 333 533 q 172 448 225 483 q 81 365 119 413 q 42 251 42 317 q 78 135 42 186 q 174 50 114 85 q 311 -3 233 15 q 472 -21 389 -21 q 658 14 574 -21 q 802 110 742 49 q 896 257 863 171 q 929 444 929 343 l 714 444 m 1047 0 l 456 563 q 426 590 442 576 q 399 617 411 603 q 378 650 386 632 q 371 692 371 668 q 389 762 371 739 q 438 785 407 785 q 484 760 467 785 q 501 694 501 735 q 490 651 501 669 q 458 617 478 633 q 414 586 439 601 q 364 553 389 571 l 447 436 q 555 483 500 458 q 655 539 610 507 q 729 614 700 571 q 758 715 758 657 q 671 922 758 851 q 438 993 583 993 q 306 974 365 993 q 203 919 246 956 q 138 828 161 882 q 114 704 114 775 q 126 626 114 663 q 163 557 139 590 q 219 492 186 524 q 290 426 251 460 l 807 0 l 1047 0 z "},"‚":{"ha":346,"x_min":42,"x_max":304,"o":"m 42 -174 l 132 -174 l 304 228 l 83 228 l 42 -174 z "},"„":{"ha":650,"x_min":42,"x_max":608,"o":"m 42 -174 l 132 -174 l 304 228 l 83 228 l 42 -174 m 346 -174 l 436 -174 l 608 228 l 388 228 l 346 -174 z "},"”":{"ha":650,"x_min":42,"x_max":608,"o":"m 42 571 l 132 571 l 304 972 l 83 972 l 42 571 m 346 571 l 436 571 l 608 972 l 388 972 l 346 571 z "},"“":{"ha":650,"x_min":42,"x_max":608,"o":"m 608 972 l 518 972 l 346 571 l 567 571 l 608 972 m 304 972 l 214 972 l 42 571 l 263 571 l 304 972 z "},"‘":{"ha":346,"x_min":42,"x_max":304,"o":"m 304 972 l 214 972 l 42 571 l 263 571 l 304 972 z "},"’":{"ha":346,"x_min":42,"x_max":304,"o":"m 42 571 l 132 571 l 304 972 l 83 972 l 42 571 z "},"_":{"ha":639,"x_min":-14,"x_max":653,"o":"m -14 -243 l 653 -243 l 653 -90 l -14 -90 l -14 -243 z "},"–":{"ha":583,"x_min":42,"x_max":542,"o":"m 42 301 l 542 301 l 542 454 l 42 454 l 42 301 z "},"—":{"ha":1329,"x_min":42,"x_max":1288,"o":"m 42 301 l 1288 301 l 1288 454 l 42 454 l 42 301 z "},"¢":{"ha":758,"x_min":42,"x_max":717,"o":"m 358 82 l 358 -153 l 483 -153 l 483 82 l 358 82 m 483 597 l 483 875 l 358 875 l 358 597 l 483 597 m 546 263 q 492 202 522 217 q 429 188 461 188 q 369 199 394 188 q 329 232 344 210 q 306 287 314 254 q 299 361 299 319 q 309 432 299 404 q 337 476 319 460 q 376 500 354 493 q 418 507 397 507 q 480 490 451 507 q 524 444 508 472 l 694 556 q 579 672 656 628 q 399 715 503 715 q 256 690 322 715 q 143 617 190 665 q 69 501 96 569 q 42 347 42 433 q 69 197 42 264 q 144 81 96 129 q 261 6 193 32 q 413 -21 329 -21 q 597 18 528 -21 q 717 138 667 57 l 546 263 z "},"£":{"ha":828,"x_min":14,"x_max":786,"o":"m 443 629 q 451 719 443 688 q 469 766 458 751 q 494 783 481 781 q 519 785 507 785 q 519 785 519 785 q 519 785 519 785 q 579 767 556 785 q 614 722 603 750 l 785 833 q 697 939 754 897 q 544 990 639 981 q 519 992 532 992 q 494 993 507 993 q 385 976 435 993 q 299 926 336 958 q 237 845 261 893 q 201 736 213 797 q 195 690 197 714 q 193 642 193 667 q 196 548 193 590 q 199 468 199 506 q 195 406 199 436 q 181 346 192 376 q 151 283 171 315 q 100 215 132 251 l 367 179 q 406 235 390 208 q 431 287 422 261 q 444 339 440 313 q 450 394 449 365 q 447 499 451 443 q 443 629 443 556 m 14 439 l 682 439 l 682 592 l 14 592 l 14 439 m 100 0 l 786 0 l 786 215 l 100 215 l 100 0 z "},"¥":{"ha":954,"x_min":0,"x_max":954,"o":"m 593 540 l 311 972 l 0 972 l 346 442 l 544 442 l 593 540 m 601 454 l 954 972 l 674 972 l 389 554 l 493 454 l 601 454 m 346 0 l 610 0 l 610 499 l 346 499 l 346 0 m 169 344 l 785 344 l 785 456 l 169 456 l 169 344 m 169 149 l 785 149 l 785 260 l 169 260 l 169 149 z "},"−":{"ha":514,"x_min":42,"x_max":472,"o":"m 42 301 l 472 301 l 472 454 l 42 454 l 42 301 z "},"±":{"ha":597,"x_min":42,"x_max":556,"o":"m 42 417 l 556 417 l 556 569 l 42 569 l 42 417 m 222 750 l 222 236 l 375 236 l 375 750 l 222 750 m 83 0 l 514 0 l 514 153 l 83 153 l 83 0 z "},"×":{"ha":556,"x_min":42,"x_max":514,"o":"m 42 561 l 406 197 l 514 306 l 150 669 l 42 561 m 406 669 l 42 306 l 150 197 l 514 561 l 406 669 z "},"÷":{"ha":514,"x_min":42,"x_max":472,"o":"m 160 128 q 186 57 160 83 q 257 31 213 31 q 328 57 301 31 q 354 128 354 83 q 328 199 354 172 q 257 225 301 225 q 186 199 213 225 q 160 128 160 172 m 160 628 q 186 557 160 583 q 257 531 213 531 q 328 557 301 531 q 354 628 354 583 q 328 699 354 672 q 257 725 301 725 q 186 699 213 725 q 160 628 160 672 m 42 301 l 472 301 l 472 454 l 42 454 l 42 301 z "},"%":{"ha":1164,"x_min":42,"x_max":1122,"o":"m 192 0 l 344 0 l 965 972 l 813 972 l 192 0 m 42 736 q 97 547 42 611 q 242 483 151 483 q 386 547 332 483 q 440 736 440 611 q 386 926 440 863 q 242 990 332 990 q 97 926 151 990 q 42 736 42 863 m 171 738 q 190 851 171 815 q 242 886 210 886 q 293 851 274 886 q 313 738 313 815 q 293 623 313 658 q 242 588 274 588 q 190 623 210 588 q 171 738 171 658 m 724 232 q 778 43 724 107 q 924 -21 833 -21 q 1068 43 1014 -21 q 1122 232 1122 107 q 1068 422 1122 358 q 924 486 1014 486 q 778 422 833 486 q 724 232 724 358 m 853 233 q 872 347 853 311 q 924 382 892 382 q 975 347 956 382 q 994 233 994 311 q 975 119 994 154 q 924 83 956 83 q 872 119 892 83 q 853 233 853 154 z "},"¹":{"ha":286,"x_min":42,"x_max":244,"o":"m 244 556 l 244 1042 l 119 1042 l 119 556 l 244 556 m 42 949 l 244 949 l 244 1042 l 42 1042 l 42 949 z "},"²":{"ha":418,"x_min":42,"x_max":376,"o":"m 133 604 q 181 640 156 619 q 233 683 207 660 q 282 733 258 707 q 324 788 306 760 q 352 846 342 817 q 363 906 363 875 q 351 961 363 935 q 318 1008 340 988 q 264 1040 296 1028 q 189 1053 232 1053 q 144 1047 167 1053 q 103 1033 122 1042 q 69 1012 85 1024 q 42 988 53 1000 l 100 908 q 118 919 108 913 q 138 933 128 926 q 161 944 149 939 q 189 949 174 949 q 209 945 200 949 q 224 936 218 942 q 234 924 231 931 q 238 910 238 917 q 224 863 238 889 q 184 806 210 838 q 122 737 158 774 q 43 657 86 700 l 133 604 m 43 556 l 376 556 l 376 657 l 43 657 l 43 556 z "},"³":{"ha":453,"x_min":42,"x_max":411,"o":"m 129 756 l 197 756 q 252 765 221 756 q 311 795 283 775 q 358 844 339 815 q 378 913 378 874 q 367 964 378 939 q 333 1008 356 989 q 278 1040 311 1028 q 204 1053 246 1053 q 159 1047 181 1053 q 118 1033 138 1042 q 83 1012 99 1024 q 57 988 67 1000 l 115 908 q 132 919 122 913 q 153 933 142 926 q 176 944 164 939 q 204 949 189 949 q 224 944 215 949 q 240 933 233 940 q 249 915 246 925 q 253 894 253 906 q 249 871 253 882 q 235 851 244 860 q 214 837 226 842 q 186 832 201 832 l 129 832 l 129 756 m 129 832 l 129 756 l 197 756 q 263 738 239 756 q 286 697 286 721 q 281 676 286 685 q 268 661 276 667 q 247 653 260 656 q 218 650 235 650 q 181 654 199 650 q 149 665 164 658 q 122 678 135 671 q 100 690 110 685 l 42 610 q 72 585 54 597 q 112 565 90 574 q 158 551 133 556 q 210 546 183 546 q 296 558 258 546 q 359 590 333 569 q 398 640 385 611 q 411 700 411 668 q 392 764 411 739 q 344 804 374 789 q 278 826 315 819 q 206 832 242 832 l 129 832 z "},"⁄":{"ha":774,"x_min":0,"x_max":774,"o":"m 0 0 l 153 0 l 774 972 l 621 972 l 0 0 z "},"¼":{"ha":1146,"x_min":35,"x_max":1104,"o":"m 138 0 l 290 0 l 911 972 l 758 972 l 138 0 m 238 493 l 238 979 l 113 979 l 113 493 l 238 493 m 35 886 l 238 886 l 238 979 l 35 979 l 35 886 m 1043 0 l 1043 486 l 975 486 l 918 358 l 918 0 l 1043 0 m 717 103 l 1104 103 l 1104 193 l 717 193 l 717 103 m 811 157 l 1043 486 l 922 486 l 717 193 l 811 157 z "},"½":{"ha":1121,"x_min":42,"x_max":1079,"o":"m 144 0 l 297 0 l 918 972 l 765 972 l 144 0 m 244 493 l 244 979 l 119 979 l 119 493 l 244 493 m 42 886 l 244 886 l 244 979 l 42 979 l 42 886 m 836 49 q 910 106 869 72 q 985 178 950 139 q 1042 262 1019 218 q 1065 350 1065 306 q 1022 453 1065 408 q 892 497 978 497 q 807 477 847 497 q 744 432 767 457 l 803 353 q 842 378 819 364 q 892 393 864 393 q 913 390 904 393 q 928 381 922 386 q 938 368 935 375 q 940 354 940 361 q 888 251 940 314 q 746 101 835 189 l 836 49 m 746 0 l 1079 0 l 1079 101 l 746 101 l 746 0 z "},"¾":{"ha":1201,"x_min":42,"x_max":1160,"o":"m 193 0 l 346 0 l 967 972 l 814 972 l 193 0 m 129 693 l 197 693 q 252 703 221 693 q 311 733 283 714 q 358 782 339 753 q 378 850 378 811 q 367 901 378 876 q 333 947 356 926 q 278 978 311 967 q 204 990 246 990 q 119 970 158 990 q 57 925 79 950 l 115 846 q 153 872 131 857 q 204 886 175 886 q 226 882 217 886 q 241 871 235 878 q 250 853 247 864 q 253 832 253 843 q 235 788 253 807 q 186 769 218 769 l 129 769 l 129 693 m 129 769 l 129 693 l 197 693 q 263 676 239 693 q 286 635 286 658 q 282 614 286 622 q 269 599 278 606 q 247 590 260 593 q 218 588 235 588 q 149 602 179 588 q 100 628 119 617 l 42 547 q 111 503 65 524 q 210 483 157 483 q 360 528 308 483 q 411 638 411 574 q 392 701 411 676 q 344 742 374 726 q 278 763 315 757 q 206 769 242 769 l 129 769 m 1099 0 l 1099 486 l 1031 486 l 974 358 l 974 0 l 1099 0 m 772 103 l 1160 103 l 1160 193 l 772 193 l 772 103 m 867 157 l 1099 486 l 978 486 l 772 193 l 867 157 z "},"‰":{"ha":1632,"x_min":42,"x_max":1590,"o":"m 192 0 l 344 0 l 965 972 l 813 972 l 192 0 m 42 736 q 97 547 42 611 q 242 483 151 483 q 386 547 332 483 q 440 736 440 611 q 386 926 440 863 q 242 990 332 990 q 97 926 151 990 q 42 736 42 863 m 171 738 q 190 851 171 815 q 242 886 210 886 q 293 851 274 886 q 313 738 313 815 q 293 623 313 658 q 242 588 274 588 q 190 623 210 588 q 171 738 171 658 m 724 232 q 778 43 724 107 q 924 -21 833 -21 q 1068 43 1014 -21 q 1122 232 1122 107 q 1068 422 1122 358 q 924 486 1014 486 q 778 422 833 486 q 724 232 724 358 m 853 233 q 872 347 853 311 q 924 382 892 382 q 975 347 956 382 q 994 233 994 311 q 975 119 994 154 q 924 83 956 83 q 872 119 892 83 q 853 233 853 154 m 1192 232 q 1247 43 1192 107 q 1392 -21 1301 -21 q 1536 43 1482 -21 q 1590 232 1590 107 q 1536 422 1590 358 q 1392 486 1482 486 q 1247 422 1301 486 q 1192 232 1192 358 m 1321 233 q 1340 347 1321 311 q 1392 382 1360 382 q 1443 347 1424 382 q 1463 233 1463 311 q 1443 119 1463 154 q 1392 83 1424 83 q 1340 119 1360 83 q 1321 233 1321 154 z "},"ð":{"ha":822,"x_min":42,"x_max":794,"o":"m 358 1042 l 260 901 q 340 843 293 883 q 431 744 388 803 q 506 610 475 686 q 538 447 538 535 q 528 319 538 369 q 503 239 519 268 q 463 199 486 210 q 410 188 439 188 q 329 225 360 188 q 299 321 299 263 q 307 372 299 350 q 330 408 315 394 q 365 429 344 422 q 407 436 385 436 q 478 417 450 436 q 524 369 507 399 q 549 306 542 340 q 556 239 556 271 l 688 239 q 655 443 688 368 q 576 557 622 518 q 477 606 529 596 q 386 617 425 617 q 254 598 317 617 q 144 541 192 579 q 69 443 97 503 q 42 301 42 383 q 67 156 42 217 q 140 56 93 94 q 254 -2 188 17 q 401 -21 321 -21 q 562 11 489 -21 q 686 102 635 43 q 766 247 738 161 q 794 438 794 332 q 749 656 794 554 q 638 835 704 757 q 495 967 571 914 q 358 1042 419 1019 m 331 656 l 746 875 l 694 972 l 279 753 l 331 656 z "},"ﬁ":{"ha":958,"x_min":14,"x_max":917,"o":"m 653 0 l 903 0 l 903 694 l 653 694 l 653 0 m 626 1011 q 565 1026 601 1021 q 497 1032 528 1032 q 372 1010 429 1032 q 275 949 315 989 q 212 851 235 908 q 189 721 189 793 l 189 0 l 439 0 l 439 731 q 444 776 439 758 q 458 805 450 794 q 478 819 467 815 q 500 824 489 824 q 540 816 521 824 q 569 803 558 808 l 626 1011 m 639 903 q 677 802 639 840 q 778 764 715 764 q 878 802 840 764 q 917 903 917 840 q 878 1003 917 965 q 778 1042 840 1042 q 677 1003 715 1042 q 639 903 639 965 m 14 486 l 669 486 l 669 694 l 14 694 l 14 486 z "},"ﬂ":{"ha":1043,"x_min":14,"x_max":1015,"o":"m 14 486 l 669 486 l 669 694 l 14 694 l 14 486 m 765 694 l 765 0 l 1015 0 l 1015 794 q 992 906 1015 861 q 919 980 969 951 q 788 1020 868 1008 q 593 1032 707 1032 q 413 1010 489 1032 q 287 949 336 989 q 213 851 238 908 q 189 721 189 793 l 189 0 l 439 0 l 439 731 q 448 776 439 758 q 475 805 457 794 q 520 819 493 815 q 583 824 547 824 q 656 817 622 824 q 713 794 689 810 q 751 755 738 779 q 765 694 765 731 z "},"ﬃ":{"ha":1393,"x_min":14,"x_max":1351,"o":"m 14 486 l 1104 486 l 1104 694 l 14 694 l 14 486 m 1088 0 l 1338 0 l 1338 694 l 1088 694 l 1088 0 m 1061 1011 q 999 1026 1036 1021 q 932 1032 963 1032 q 807 1010 864 1032 q 710 949 750 989 q 647 851 669 908 q 624 721 624 793 l 624 0 l 874 0 l 874 731 q 879 776 874 758 q 893 805 885 794 q 913 819 901 815 q 935 824 924 824 q 974 816 956 824 q 1004 803 993 808 l 1061 1011 m 1074 903 q 1112 802 1074 840 q 1213 764 1150 764 q 1313 802 1275 764 q 1351 903 1351 840 q 1313 1003 1351 965 q 1213 1042 1275 1042 q 1112 1003 1150 1042 q 1074 903 1074 965 m 626 1011 q 565 1026 601 1021 q 497 1032 528 1032 q 372 1010 429 1032 q 275 949 315 989 q 212 851 235 908 q 189 721 189 793 l 189 0 l 439 0 l 439 731 q 444 776 439 758 q 458 805 450 794 q 478 819 467 815 q 500 824 489 824 q 540 816 521 824 q 569 803 558 808 l 626 1011 z "},"ﬄ":{"ha":1478,"x_min":14,"x_max":1450,"o":"m 14 486 l 1104 486 l 1104 694 l 14 694 l 14 486 m 1200 694 l 1200 0 l 1450 0 l 1450 794 q 1427 906 1450 861 q 1353 980 1404 951 q 1222 1020 1303 1008 q 1028 1032 1142 1032 q 847 1010 924 1032 q 722 949 771 989 q 648 851 672 908 q 624 721 624 793 l 624 0 l 874 0 l 874 731 q 883 776 874 758 q 910 805 892 794 q 955 819 928 815 q 1018 824 982 824 q 1090 817 1057 824 q 1148 794 1124 810 q 1186 755 1172 779 q 1200 694 1200 731 m 626 1011 q 565 1026 601 1021 q 497 1032 528 1032 q 372 1010 429 1032 q 275 949 315 989 q 212 851 235 908 q 189 721 189 793 l 189 0 l 439 0 l 439 731 q 444 776 439 758 q 458 805 450 794 q 478 819 467 815 q 500 824 489 824 q 540 816 521 824 q 569 803 558 808 l 626 1011 z "},"ﬀ":{"ha":1158,"x_min":14,"x_max":1158,"o":"m 14 486 l 1104 486 l 1104 694 l 14 694 l 14 486 m 1158 931 q 1063 1005 1121 978 q 932 1032 1006 1032 q 807 1010 864 1032 q 710 949 750 989 q 647 851 669 908 q 624 721 624 793 l 624 0 l 874 0 l 874 731 q 881 776 874 758 q 901 805 889 794 q 927 819 913 815 q 954 824 942 824 q 1000 811 981 824 q 1031 776 1019 799 l 1158 931 m 626 1011 q 565 1026 601 1021 q 497 1032 528 1032 q 372 1010 429 1032 q 275 949 315 989 q 212 851 235 908 q 189 721 189 793 l 189 0 l 439 0 l 439 731 q 444 776 439 758 q 458 805 450 794 q 478 819 467 815 q 500 824 489 824 q 540 816 521 824 q 569 803 558 808 l 626 1011 z "},"ﬆ":{"ha":1379,"x_min":42,"x_max":1393,"o":"m 304 251 q 375 236 344 242 q 426 226 406 231 q 456 215 446 221 q 467 200 467 210 q 455 183 467 189 q 426 173 443 176 q 390 168 408 169 q 360 167 372 167 q 315 169 339 167 q 267 180 292 172 q 220 200 243 188 q 179 232 197 213 l 42 103 q 194 6 113 32 q 364 -21 275 -21 q 494 -1 436 -21 q 592 51 551 18 q 653 131 632 85 q 675 231 675 176 q 660 304 675 271 q 615 365 646 338 q 535 415 583 393 q 418 456 486 438 q 356 471 381 465 q 315 481 331 476 q 292 492 299 486 q 285 507 285 497 q 292 520 285 515 q 309 528 299 525 q 333 532 319 531 q 360 533 346 533 q 457 517 413 533 q 526 482 501 501 l 649 615 q 531 688 604 663 q 369 714 458 714 q 247 697 301 714 q 155 648 193 679 q 97 574 117 617 q 76 479 76 531 q 136 330 76 382 q 304 251 196 278 m 685 465 l 1310 465 l 1310 674 l 685 674 l 685 465 m 649 615 q 659 720 649 674 q 690 798 669 767 q 738 846 710 829 q 804 863 767 863 q 841 849 829 863 q 857 815 853 836 q 860 767 861 794 q 858 713 858 740 l 858 233 q 881 126 858 174 q 944 47 904 79 q 1042 -3 985 14 q 1167 -21 1099 -21 q 1298 6 1240 -21 q 1393 81 1356 33 l 1265 235 q 1235 200 1254 213 q 1189 188 1215 188 q 1162 191 1176 188 q 1135 202 1147 194 q 1116 224 1124 210 q 1108 258 1108 238 l 1108 713 q 1103 836 1108 781 q 1069 931 1097 892 q 982 993 1042 971 q 815 1015 922 1015 q 636 976 706 1015 q 528 872 567 936 q 474 724 489 807 q 460 557 460 642 l 649 615 z "},"Ð":{"ha":1104,"x_min":14,"x_max":1063,"o":"m 169 0 l 433 0 l 433 972 l 169 972 l 169 0 m 278 0 l 560 0 q 766 33 674 0 q 924 129 858 67 q 1026 282 990 192 q 1063 486 1063 372 q 1026 690 1063 600 q 924 843 990 781 q 766 939 858 906 q 560 972 674 972 l 274 972 l 274 757 l 567 757 q 731 687 669 757 q 792 486 792 617 q 776 372 792 422 q 731 286 760 321 q 660 233 701 251 q 567 215 618 215 l 278 215 l 278 0 m 14 404 l 607 404 l 607 557 l 14 557 l 14 404 z "},"Đ":{"ha":1104,"x_min":14,"x_max":1063,"o":"m 169 0 l 433 0 l 433 972 l 169 972 l 169 0 m 278 0 l 560 0 q 766 33 674 0 q 924 129 858 67 q 1026 282 990 192 q 1063 486 1063 372 q 1026 690 1063 600 q 924 843 990 781 q 766 939 858 906 q 560 972 674 972 l 274 972 l 274 757 l 567 757 q 731 687 669 757 q 792 486 792 617 q 776 372 792 422 q 731 286 760 321 q 660 233 701 251 q 567 215 618 215 l 278 215 l 278 0 m 14 404 l 607 404 l 607 557 l 14 557 l 14 404 z "},"đ":{"ha":926,"x_min":42,"x_max":913,"o":"m 539 0 l 789 0 l 789 1042 l 539 1042 l 539 0 m 42 347 q 67 197 42 264 q 136 81 93 129 q 235 6 179 32 q 350 -21 290 -21 q 435 -6 396 -21 q 502 39 474 10 q 546 111 531 68 q 561 208 561 154 l 561 469 q 546 574 561 528 q 503 651 531 619 q 438 699 476 682 q 350 715 399 715 q 235 689 290 715 q 136 614 179 663 q 67 498 93 565 q 42 347 42 431 m 299 347 q 308 413 299 383 q 332 463 317 442 q 370 495 347 483 q 419 507 393 507 q 469 495 447 507 q 506 463 490 483 q 531 413 522 442 q 539 347 539 383 q 531 282 539 311 q 506 232 522 253 q 469 199 490 211 q 419 188 447 188 q 370 199 393 188 q 332 232 347 211 q 308 282 317 253 q 299 347 299 311 m 342 779 l 913 779 l 913 932 l 342 932 l 342 779 z "},"Ł":{"ha":915,"x_min":14,"x_max":874,"o":"m 188 0 l 451 0 l 451 972 l 188 972 l 188 0 m 340 0 l 874 0 l 874 215 l 340 215 l 340 0 m 67 293 l 661 515 l 607 658 l 14 435 l 67 293 z "},"ł":{"ha":696,"x_min":14,"x_max":682,"o":"m 476 0 l 476 1042 l 226 1042 l 226 0 l 476 0 m 110 189 l 682 649 l 588 768 l 14 308 l 110 189 z "},"®":{"ha":1140,"x_min":42,"x_max":1099,"o":"m 571 56 q 415 83 485 56 q 297 162 346 111 q 221 285 247 213 q 194 446 194 357 q 221 608 194 536 q 297 731 247 681 q 415 810 346 782 q 571 838 485 838 q 726 810 657 838 q 844 731 796 782 q 919 608 893 681 q 946 446 946 536 q 919 285 946 357 q 844 162 893 213 q 726 83 796 111 q 571 56 657 56 m 571 -97 q 785 -58 688 -97 q 952 53 882 -18 q 1060 225 1022 125 q 1099 446 1099 325 q 1060 667 1099 567 q 952 839 1022 767 q 785 951 882 911 q 571 990 688 990 q 356 951 453 990 q 189 839 258 911 q 81 667 119 767 q 42 446 42 567 q 81 225 42 325 q 189 53 119 125 q 356 -58 258 -18 q 571 -97 453 -97 m 390 218 l 522 218 l 522 704 l 390 704 l 390 218 m 444 396 l 567 396 q 656 406 615 396 q 725 437 696 417 q 769 485 754 457 q 785 550 785 514 q 769 615 785 586 q 725 663 754 643 q 656 694 696 683 q 567 704 615 704 l 443 704 l 443 597 l 560 597 q 625 585 600 597 q 650 550 650 572 q 625 516 650 528 q 560 504 600 504 l 444 504 l 444 396 m 661 218 l 810 218 l 657 465 l 508 465 l 661 218 z "},"©":{"ha":1140,"x_min":42,"x_max":1099,"o":"m 571 56 q 415 83 485 56 q 297 162 346 111 q 221 285 247 213 q 194 446 194 357 q 221 608 194 536 q 297 731 247 681 q 415 810 346 782 q 571 838 485 838 q 726 810 657 838 q 844 731 796 782 q 919 608 893 681 q 946 446 946 536 q 919 285 946 357 q 844 162 893 213 q 726 83 796 111 q 571 56 657 56 m 571 -97 q 785 -58 688 -97 q 952 53 882 -18 q 1060 225 1022 125 q 1099 446 1099 325 q 1060 667 1099 567 q 952 839 1022 767 q 785 951 882 911 q 571 990 688 990 q 356 951 453 990 q 189 839 258 911 q 81 667 119 767 q 42 446 42 567 q 81 225 42 325 q 189 53 119 125 q 356 -58 258 -18 q 571 -97 453 -97 m 661 343 q 633 316 650 326 q 590 306 617 306 q 546 315 565 306 q 513 344 526 325 q 492 389 499 363 q 485 447 485 415 q 490 506 485 479 q 506 551 494 532 q 534 580 517 569 q 576 590 551 590 q 614 583 597 590 q 642 563 631 575 l 733 633 q 672 683 713 664 q 571 701 632 701 q 478 683 519 701 q 408 631 436 664 q 364 551 379 597 q 349 447 349 504 q 365 344 349 390 q 412 264 382 297 q 484 213 442 231 q 578 194 526 194 q 649 202 618 194 q 702 222 679 210 q 740 252 725 235 q 764 288 754 269 l 661 343 z "},"Ø":{"ha":1050,"x_min":24,"x_max":1026,"o":"m 58 486 q 93 278 58 372 q 192 118 128 185 q 344 15 256 51 q 543 -21 433 -21 q 741 15 651 -21 q 894 118 831 51 q 992 278 957 185 q 1026 486 1026 372 q 992 694 1026 600 q 894 854 957 788 q 741 957 831 921 q 543 993 651 993 q 344 957 433 993 q 192 854 256 921 q 93 694 128 788 q 58 486 58 600 m 329 486 q 344 603 329 551 q 388 693 360 656 q 455 751 415 731 q 543 771 494 771 q 631 751 592 771 q 697 693 669 731 q 740 603 725 656 q 756 486 756 551 q 740 369 756 422 q 697 279 725 317 q 631 222 669 242 q 543 201 592 201 q 455 222 494 201 q 388 279 415 242 q 344 369 360 317 q 329 486 329 422 m 24 82 l 113 -7 l 1026 907 l 938 994 l 24 82 z "},"ø":{"ha":819,"x_min":40,"x_max":779,"o":"m 43 347 q 69 197 43 264 q 144 81 96 129 q 260 6 193 32 q 411 -21 328 -21 q 562 6 494 -21 q 678 81 629 32 q 753 197 726 129 q 779 347 779 264 q 753 498 779 431 q 678 614 726 565 q 562 689 629 663 q 411 715 494 715 q 260 689 328 715 q 144 614 193 663 q 69 498 96 565 q 43 347 43 431 m 300 347 q 308 413 300 383 q 331 463 317 442 q 366 495 346 483 q 411 507 386 507 q 457 495 436 507 q 492 463 478 483 q 515 413 507 442 q 522 347 522 383 q 515 282 522 311 q 492 232 507 253 q 457 199 478 211 q 411 188 436 188 q 366 199 386 188 q 331 232 346 211 q 308 282 317 253 q 300 347 300 311 m 40 71 l 121 -7 l 753 656 l 672 733 l 40 71 z "},"˜":{"ha":594,"x_min":42,"x_max":553,"o":"m 553 947 l 469 947 q 455 874 469 890 q 413 858 440 858 q 365 876 388 858 q 317 915 342 894 q 264 954 292 936 q 203 972 236 972 q 144 962 174 972 q 92 928 115 951 q 56 865 69 904 q 42 767 42 825 l 125 767 q 148 844 125 826 q 204 861 171 861 q 253 843 231 861 q 299 804 275 825 q 350 765 322 783 q 417 747 378 747 q 516 792 479 747 q 553 947 553 838 z "},"˚":{"ha":422,"x_min":42,"x_max":381,"o":"m 213 833 q 169 844 185 833 q 153 875 153 856 q 169 906 153 894 q 213 917 185 917 q 254 906 239 917 q 269 875 269 894 q 254 844 269 856 q 213 833 239 833 m 213 722 q 334 764 288 722 q 381 874 381 806 q 334 985 381 943 q 213 1028 288 1028 q 89 985 136 1028 q 42 874 42 943 q 89 764 42 806 q 213 722 136 722 z "},"`":{"ha":407,"x_min":42,"x_max":365,"o":"m 301 693 l 365 757 l 178 1017 l 42 881 l 301 693 z "},"´":{"ha":407,"x_min":42,"x_max":365,"o":"m 106 693 l 365 881 l 229 1017 l 42 757 l 106 693 z "},"ˇ":{"ha":579,"x_min":42,"x_max":538,"o":"m 221 694 l 358 694 l 538 972 l 342 972 l 290 853 l 238 972 l 42 972 l 221 694 z "},"ˆ":{"ha":579,"x_min":42,"x_max":538,"o":"m 221 972 l 42 694 l 238 694 l 290 814 l 342 694 l 538 694 l 358 972 l 221 972 z "},"¨":{"ha":561,"x_min":42,"x_max":519,"o":"m 42 813 q 68 742 42 768 q 139 715 94 715 q 210 742 183 715 q 236 813 236 768 q 210 883 236 857 q 139 910 183 910 q 68 883 94 910 q 42 813 42 857 m 325 813 q 351 742 325 768 q 422 715 378 715 q 493 742 467 715 q 519 813 519 768 q 493 883 519 857 q 422 910 467 910 q 351 883 378 910 q 325 813 325 857 z "},"¸":{"ha":374,"x_min":42,"x_max":332,"o":"m 157 0 l 121 -115 q 151 -117 133 -115 q 185 -124 169 -119 q 213 -137 201 -129 q 225 -158 225 -146 q 219 -181 225 -172 q 203 -196 213 -190 q 181 -203 193 -201 q 157 -206 169 -206 q 132 -201 143 -206 q 114 -193 121 -197 q 97 -181 104 -187 l 42 -275 q 74 -296 56 -286 q 112 -310 90 -304 q 160 -317 133 -317 q 221 -310 190 -317 q 276 -289 251 -304 q 317 -248 301 -274 q 332 -185 332 -222 q 306 -105 332 -132 q 244 -68 281 -78 l 264 0 l 157 0 z "},"́":{"ha":0,"x_min":-162,"x_max":161,"o":"m -99 693 l 161 881 l 25 1017 l -162 757 l -99 693 z "},"̀":{"ha":0,"x_min":-162,"x_max":161,"o":"m 97 693 l 161 757 l -26 1017 l -162 881 l 97 693 z "},"̃":{"ha":0,"x_min":-256,"x_max":256,"o":"m 256 915 l 172 915 q 158 842 172 858 q 115 826 143 826 q 67 844 90 826 q 19 883 44 863 q -33 922 -6 904 q -94 940 -61 940 q -153 930 -124 940 q -205 896 -182 919 q -242 833 -228 872 q -256 735 -256 793 l -172 735 q -149 812 -172 794 q -93 829 -126 829 q -44 811 -67 829 q 1 772 -22 793 q 53 733 25 751 q 119 715 81 715 q 219 760 182 715 q 256 915 256 806 z "},"̌":{"ha":0,"x_min":-247,"x_max":249,"o":"m -68 694 l 69 694 l 249 972 l 53 972 l 1 853 l -51 972 l -247 972 l -68 694 z "},"̂":{"ha":0,"x_min":-247,"x_max":249,"o":"m -68 972 l -247 694 l -51 694 l 1 814 l 53 694 l 249 694 l 69 972 l -68 972 z "},"̊":{"ha":0,"x_min":-171,"x_max":168,"o":"m 0 808 q -44 819 -28 808 q -60 850 -60 831 q -44 881 -60 869 q 0 892 -28 892 q 42 881 26 892 q 57 850 57 869 q 42 819 57 831 q 0 808 26 808 m 0 697 q 122 739 75 697 q 168 849 168 781 q 122 960 168 918 q 0 1003 75 1003 q -124 960 -76 1003 q -171 849 -171 918 q -124 739 -171 781 q 0 697 -76 697 z "},"̧":{"ha":0,"x_min":-158,"x_max":132,"o":"m -43 0 l -79 -115 q -49 -117 -67 -115 q -15 -124 -31 -119 q 13 -137 1 -129 q 25 -158 25 -146 q 19 -181 25 -172 q 3 -196 13 -190 q -19 -203 -7 -201 q -43 -206 -31 -206 q -68 -201 -57 -206 q -86 -193 -79 -197 q -103 -181 -96 -187 l -158 -275 q -126 -296 -144 -286 q -88 -310 -110 -304 q -40 -317 -67 -317 q 21 -310 -10 -317 q 76 -289 51 -304 q 117 -248 101 -274 q 132 -185 132 -222 q 106 -105 132 -132 q 44 -68 81 -78 l 64 0 l -43 0 z "},"̈":{"ha":0,"x_min":-239,"x_max":239,"o":"m -239 813 q -212 742 -239 768 q -142 715 -186 715 q -71 742 -97 715 q -44 813 -44 768 q -71 883 -44 857 q -142 910 -97 910 q -212 883 -186 910 q -239 813 -239 857 m 44 813 q 71 742 44 768 q 142 715 97 715 q 213 742 186 715 q 239 813 239 768 q 213 883 239 857 q 142 910 186 910 q 71 883 97 910 q 44 813 44 857 z "},"À":{"ha":931,"x_min":-28,"x_max":958,"o":"m -28 0 l 240 0 l 540 814 l 569 972 l 361 972 l -28 0 m 161 167 l 764 167 l 764 354 l 161 354 l 161 167 m 958 0 l 569 972 l 361 972 l 390 814 l 690 0 l 958 0 m 564 1075 l 628 1139 l 440 1399 l 304 1263 l 564 1075 z "},"Á":{"ha":931,"x_min":-28,"x_max":958,"o":"m -28 0 l 240 0 l 540 814 l 569 972 l 361 972 l -28 0 m 161 167 l 764 167 l 764 354 l 161 354 l 161 167 m 958 0 l 569 972 l 361 972 l 390 814 l 690 0 l 958 0 m 367 1075 l 626 1263 l 490 1399 l 303 1139 l 367 1075 z "},"Â":{"ha":931,"x_min":-28,"x_max":958,"o":"m -28 0 l 240 0 l 540 814 l 569 972 l 361 972 l -28 0 m 161 167 l 764 167 l 764 354 l 161 354 l 161 167 m 958 0 l 569 972 l 361 972 l 390 814 l 690 0 l 958 0 m 396 1354 l 217 1076 l 413 1076 l 465 1196 l 517 1076 l 713 1076 l 533 1354 l 396 1354 z "},"Ã":{"ha":931,"x_min":-28,"x_max":958,"o":"m -28 0 l 240 0 l 540 814 l 569 972 l 361 972 l -28 0 m 161 167 l 764 167 l 764 354 l 161 354 l 161 167 m 958 0 l 569 972 l 361 972 l 390 814 l 690 0 l 958 0 m 721 1297 l 638 1297 q 623 1224 638 1240 q 581 1208 608 1208 q 533 1226 556 1208 q 485 1265 510 1244 q 432 1304 460 1286 q 371 1322 404 1322 q 313 1312 342 1322 q 260 1278 283 1301 q 224 1215 238 1254 q 210 1117 210 1175 l 293 1117 q 316 1194 293 1176 q 372 1211 339 1211 q 421 1193 399 1211 q 467 1154 443 1175 q 518 1115 490 1133 q 585 1097 546 1097 q 684 1142 647 1097 q 721 1297 721 1188 z "},"Ä":{"ha":931,"x_min":-28,"x_max":958,"o":"m -28 0 l 240 0 l 540 814 l 569 972 l 361 972 l -28 0 m 161 167 l 764 167 l 764 354 l 161 354 l 161 167 m 958 0 l 569 972 l 361 972 l 390 814 l 690 0 l 958 0 m 226 1194 q 253 1124 226 1150 q 324 1097 279 1097 q 394 1124 368 1097 q 421 1194 421 1150 q 394 1265 421 1239 q 324 1292 368 1292 q 253 1265 279 1292 q 226 1194 226 1239 m 510 1194 q 536 1124 510 1150 q 607 1097 563 1097 q 678 1124 651 1097 q 704 1194 704 1150 q 678 1265 704 1239 q 607 1292 651 1292 q 536 1265 563 1292 q 510 1194 510 1239 z "},"Å":{"ha":931,"x_min":-28,"x_max":958,"o":"m -28 0 l 240 0 l 540 814 l 569 972 l 361 972 l -28 0 m 161 167 l 764 167 l 764 354 l 161 354 l 161 167 m 958 0 l 569 972 l 361 972 l 390 814 l 690 0 l 958 0 m 467 1188 q 423 1199 439 1188 q 407 1229 407 1210 q 423 1260 407 1249 q 467 1271 439 1271 q 508 1260 493 1271 q 524 1229 524 1249 q 508 1199 524 1210 q 467 1188 493 1188 m 467 1076 q 588 1118 542 1076 q 635 1228 635 1160 q 588 1340 635 1297 q 467 1382 542 1382 q 343 1340 390 1382 q 296 1228 296 1297 q 343 1118 296 1160 q 467 1076 390 1076 z "},"Ç":{"ha":913,"x_min":42,"x_max":871,"o":"m 665 276 q 611 223 644 244 q 524 201 578 201 q 435 222 475 201 q 369 279 396 242 q 327 369 342 317 q 313 486 313 422 q 323 603 313 551 q 356 693 333 656 q 413 751 378 731 q 496 771 447 771 q 571 756 538 771 q 628 715 604 742 l 810 857 q 689 956 769 919 q 486 993 608 993 q 299 957 382 993 q 160 854 217 921 q 72 694 103 788 q 42 486 42 600 q 74 278 42 372 q 167 118 107 185 q 312 15 228 51 q 500 -21 396 -21 q 643 -6 582 -21 q 749 36 704 10 q 823 96 793 63 q 871 165 853 129 l 665 276 m 456 0 l 419 -115 q 450 -117 432 -115 q 484 -124 468 -119 q 512 -137 500 -129 q 524 -158 524 -146 q 517 -181 524 -172 q 501 -196 511 -190 q 480 -203 492 -201 q 456 -206 468 -206 q 431 -201 442 -206 q 413 -193 419 -197 q 396 -181 403 -187 l 340 -275 q 372 -296 354 -286 q 410 -310 389 -304 q 458 -317 432 -317 q 519 -310 489 -317 q 575 -289 550 -304 q 615 -248 600 -274 q 631 -185 631 -222 q 605 -105 631 -132 q 543 -68 579 -78 l 563 0 l 456 0 z "},"È":{"ha":797,"x_min":42,"x_max":756,"o":"m 42 0 l 306 0 l 306 972 l 42 972 l 42 0 m 194 393 l 654 393 l 654 581 l 194 581 l 194 393 m 194 757 l 728 757 l 728 972 l 194 972 l 194 757 m 194 0 l 756 0 l 756 215 l 194 215 l 194 0 m 497 1075 l 561 1139 l 374 1399 l 238 1263 l 497 1075 z "},"É":{"ha":797,"x_min":42,"x_max":756,"o":"m 42 0 l 306 0 l 306 972 l 42 972 l 42 0 m 194 393 l 654 393 l 654 581 l 194 581 l 194 393 m 194 757 l 728 757 l 728 972 l 194 972 l 194 757 m 194 0 l 756 0 l 756 215 l 194 215 l 194 0 m 300 1075 l 560 1263 l 424 1399 l 236 1139 l 300 1075 z "},"Ê":{"ha":797,"x_min":42,"x_max":756,"o":"m 42 0 l 306 0 l 306 972 l 42 972 l 42 0 m 194 393 l 654 393 l 654 581 l 194 581 l 194 393 m 194 757 l 728 757 l 728 972 l 194 972 l 194 757 m 194 0 l 756 0 l 756 215 l 194 215 l 194 0 m 329 1354 l 150 1076 l 346 1076 l 399 1196 l 450 1076 l 646 1076 l 467 1354 l 329 1354 z "},"Ë":{"ha":797,"x_min":42,"x_max":756,"o":"m 42 0 l 306 0 l 306 972 l 42 972 l 42 0 m 194 393 l 654 393 l 654 581 l 194 581 l 194 393 m 194 757 l 728 757 l 728 972 l 194 972 l 194 757 m 194 0 l 756 0 l 756 215 l 194 215 l 194 0 m 160 1194 q 186 1124 160 1150 q 257 1097 213 1097 q 328 1124 301 1097 q 354 1194 354 1150 q 328 1265 354 1239 q 257 1292 301 1292 q 186 1265 213 1292 q 160 1194 160 1239 m 443 1194 q 469 1124 443 1150 q 540 1097 496 1097 q 611 1124 585 1097 q 638 1194 638 1150 q 611 1265 638 1239 q 540 1292 585 1292 q 469 1265 496 1292 q 443 1194 443 1239 z "},"Ì":{"ha":347,"x_min":13,"x_max":336,"o":"m 42 0 l 306 0 l 306 972 l 42 972 l 42 0 m 272 1075 l 336 1139 l 149 1399 l 13 1263 l 272 1075 z "},"Í":{"ha":347,"x_min":11,"x_max":335,"o":"m 42 0 l 306 0 l 306 972 l 42 972 l 42 0 m 75 1075 l 335 1263 l 199 1399 l 11 1139 l 75 1075 z "},"Î":{"ha":347,"x_min":-75,"x_max":421,"o":"m 42 0 l 306 0 l 306 972 l 42 972 l 42 0 m 104 1354 l -75 1076 l 121 1076 l 174 1196 l 225 1076 l 421 1076 l 242 1354 l 104 1354 z "},"Ï":{"ha":347,"x_min":-65,"x_max":413,"o":"m 42 0 l 306 0 l 306 972 l 42 972 l 42 0 m -65 1194 q -39 1124 -65 1150 q 32 1097 -12 1097 q 103 1124 76 1097 q 129 1194 129 1150 q 103 1265 129 1239 q 32 1292 76 1292 q -39 1265 -12 1292 q -65 1194 -65 1239 m 218 1194 q 244 1124 218 1150 q 315 1097 271 1097 q 386 1124 360 1097 q 413 1194 413 1150 q 386 1265 413 1239 q 315 1292 360 1292 q 244 1265 271 1292 q 218 1194 218 1239 z "},"Ñ":{"ha":940,"x_min":42,"x_max":899,"o":"m 42 0 l 306 0 l 306 972 l 42 972 l 42 0 m 635 0 l 899 0 l 899 972 l 635 972 l 635 0 m 42 972 l 104 811 l 621 0 l 899 0 l 832 146 l 306 972 l 42 972 m 726 1297 l 643 1297 q 628 1224 643 1240 q 586 1208 614 1208 q 538 1226 561 1208 q 490 1265 515 1244 q 438 1304 465 1286 q 376 1322 410 1322 q 318 1312 347 1322 q 266 1278 289 1301 q 229 1215 243 1254 q 215 1117 215 1175 l 299 1117 q 322 1194 299 1176 q 378 1211 344 1211 q 426 1193 404 1211 q 472 1154 449 1175 q 524 1115 496 1133 q 590 1097 551 1097 q 690 1142 653 1097 q 726 1297 726 1188 z "},"Ò":{"ha":1051,"x_min":42,"x_max":1010,"o":"m 42 486 q 76 278 42 372 q 175 118 111 185 q 328 15 239 51 q 526 -21 417 -21 q 724 15 635 -21 q 877 118 814 51 q 975 278 940 185 q 1010 486 1010 372 q 975 694 1010 600 q 877 854 940 788 q 724 957 814 921 q 526 993 635 993 q 328 957 417 993 q 175 854 239 921 q 76 694 111 788 q 42 486 42 600 m 313 486 q 328 603 313 551 q 371 693 343 656 q 438 751 399 731 q 526 771 478 771 q 614 751 575 771 q 681 693 653 731 q 724 603 708 656 q 739 486 739 551 q 724 369 739 422 q 681 279 708 317 q 614 222 653 242 q 526 201 575 201 q 438 222 478 201 q 371 279 399 242 q 328 369 343 317 q 313 486 313 422 m 625 1096 l 689 1160 l 501 1419 l 365 1283 l 625 1096 z "},"Ó":{"ha":1051,"x_min":42,"x_max":1010,"o":"m 42 486 q 76 278 42 372 q 175 118 111 185 q 328 15 239 51 q 526 -21 417 -21 q 724 15 635 -21 q 877 118 814 51 q 975 278 940 185 q 1010 486 1010 372 q 975 694 1010 600 q 877 854 940 788 q 724 957 814 921 q 526 993 635 993 q 328 957 417 993 q 175 854 239 921 q 76 694 111 788 q 42 486 42 600 m 313 486 q 328 603 313 551 q 371 693 343 656 q 438 751 399 731 q 526 771 478 771 q 614 751 575 771 q 681 693 653 731 q 724 603 708 656 q 739 486 739 551 q 724 369 739 422 q 681 279 708 317 q 614 222 653 242 q 526 201 575 201 q 438 222 478 201 q 371 279 399 242 q 328 369 343 317 q 313 486 313 422 m 428 1096 l 688 1283 l 551 1419 l 364 1160 l 428 1096 z "},"Ô":{"ha":1051,"x_min":42,"x_max":1010,"o":"m 42 486 q 76 278 42 372 q 175 118 111 185 q 328 15 239 51 q 526 -21 417 -21 q 724 15 635 -21 q 877 118 814 51 q 975 278 940 185 q 1010 486 1010 372 q 975 694 1010 600 q 877 854 940 788 q 724 957 814 921 q 526 993 635 993 q 328 957 417 993 q 175 854 239 921 q 76 694 111 788 q 42 486 42 600 m 313 486 q 328 603 313 551 q 371 693 343 656 q 438 751 399 731 q 526 771 478 771 q 614 751 575 771 q 681 693 653 731 q 724 603 708 656 q 739 486 739 551 q 724 369 739 422 q 681 279 708 317 q 614 222 653 242 q 526 201 575 201 q 438 222 478 201 q 371 279 399 242 q 328 369 343 317 q 313 486 313 422 m 457 1375 l 278 1097 l 474 1097 l 526 1217 l 578 1097 l 774 1097 l 594 1375 l 457 1375 z "},"Õ":{"ha":1051,"x_min":42,"x_max":1010,"o":"m 42 486 q 76 278 42 372 q 175 118 111 185 q 328 15 239 51 q 526 -21 417 -21 q 724 15 635 -21 q 877 118 814 51 q 975 278 940 185 q 1010 486 1010 372 q 975 694 1010 600 q 877 854 940 788 q 724 957 814 921 q 526 993 635 993 q 328 957 417 993 q 175 854 239 921 q 76 694 111 788 q 42 486 42 600 m 313 486 q 328 603 313 551 q 371 693 343 656 q 438 751 399 731 q 526 771 478 771 q 614 751 575 771 q 681 693 653 731 q 724 603 708 656 q 739 486 739 551 q 724 369 739 422 q 681 279 708 317 q 614 222 653 242 q 526 201 575 201 q 438 222 478 201 q 371 279 399 242 q 328 369 343 317 q 313 486 313 422 m 782 1318 l 699 1318 q 684 1245 699 1261 q 642 1229 669 1229 q 594 1247 617 1229 q 546 1286 571 1265 q 493 1325 521 1307 q 432 1343 465 1343 q 374 1333 403 1343 q 322 1299 344 1322 q 285 1235 299 1275 q 271 1138 271 1196 l 354 1138 q 377 1215 354 1197 q 433 1232 400 1232 q 482 1214 460 1232 q 528 1175 504 1196 q 579 1136 551 1154 q 646 1118 607 1118 q 745 1163 708 1118 q 782 1318 782 1208 z "},"Ö":{"ha":1051,"x_min":42,"x_max":1010,"o":"m 42 486 q 76 278 42 372 q 175 118 111 185 q 328 15 239 51 q 526 -21 417 -21 q 724 15 635 -21 q 877 118 814 51 q 975 278 940 185 q 1010 486 1010 372 q 975 694 1010 600 q 877 854 940 788 q 724 957 814 921 q 526 993 635 993 q 328 957 417 993 q 175 854 239 921 q 76 694 111 788 q 42 486 42 600 m 313 486 q 328 603 313 551 q 371 693 343 656 q 438 751 399 731 q 526 771 478 771 q 614 751 575 771 q 681 693 653 731 q 724 603 708 656 q 739 486 739 551 q 724 369 739 422 q 681 279 708 317 q 614 222 653 242 q 526 201 575 201 q 438 222 478 201 q 371 279 399 242 q 328 369 343 317 q 313 486 313 422 m 288 1215 q 314 1144 288 1171 q 385 1118 340 1118 q 456 1144 429 1118 q 482 1215 482 1171 q 456 1286 482 1260 q 385 1313 429 1313 q 314 1286 340 1313 q 288 1215 288 1260 m 571 1215 q 597 1144 571 1171 q 668 1118 624 1118 q 739 1144 713 1118 q 765 1215 765 1171 q 739 1286 765 1260 q 668 1313 713 1313 q 597 1286 624 1313 q 571 1215 571 1260 z "},"Š":{"ha":825,"x_min":42,"x_max":783,"o":"m 381 364 q 450 344 419 353 q 502 324 481 335 q 535 301 524 314 q 547 269 547 289 q 537 238 547 251 q 509 217 526 225 q 468 205 492 208 q 418 201 444 201 q 358 207 386 201 q 305 223 329 213 q 259 249 281 233 q 219 285 238 265 l 42 149 q 210 20 111 61 q 418 -21 308 -21 q 572 4 504 -21 q 688 72 640 29 q 759 172 735 114 q 783 296 783 229 q 768 395 783 350 q 719 478 753 440 q 634 547 686 515 q 510 604 582 578 q 421 637 456 624 q 366 661 386 650 q 338 683 346 672 q 329 707 329 693 q 336 733 329 721 q 357 753 343 744 q 393 766 371 761 q 444 771 415 771 q 544 756 497 771 q 622 721 590 742 l 750 888 q 622 965 706 936 q 443 993 539 993 q 288 969 354 993 q 179 904 222 946 q 115 805 136 863 q 93 678 93 747 q 111 572 93 619 q 165 484 129 524 q 256 415 201 444 q 381 364 310 385 m 343 1097 l 481 1097 l 660 1375 l 464 1375 l 413 1256 l 360 1375 l 164 1375 l 343 1097 z "},"Ù":{"ha":931,"x_min":42,"x_max":889,"o":"m 889 972 l 625 972 l 625 379 q 582 248 625 294 q 467 201 539 201 q 350 248 394 201 q 306 379 306 294 l 306 972 l 42 972 l 42 379 q 72 213 42 286 q 158 87 103 139 q 292 7 214 35 q 467 -21 371 -21 q 640 7 563 -21 q 773 87 718 35 q 858 213 828 139 q 889 379 889 286 l 889 972 m 564 1075 l 628 1139 l 440 1399 l 304 1263 l 564 1075 z "},"Ú":{"ha":931,"x_min":42,"x_max":889,"o":"m 889 972 l 625 972 l 625 379 q 582 248 625 294 q 467 201 539 201 q 350 248 394 201 q 306 379 306 294 l 306 972 l 42 972 l 42 379 q 72 213 42 286 q 158 87 103 139 q 292 7 214 35 q 467 -21 371 -21 q 640 7 563 -21 q 773 87 718 35 q 858 213 828 139 q 889 379 889 286 l 889 972 m 367 1075 l 626 1263 l 490 1399 l 303 1139 l 367 1075 z "},"Û":{"ha":931,"x_min":42,"x_max":889,"o":"m 889 972 l 625 972 l 625 379 q 582 248 625 294 q 467 201 539 201 q 350 248 394 201 q 306 379 306 294 l 306 972 l 42 972 l 42 379 q 72 213 42 286 q 158 87 103 139 q 292 7 214 35 q 467 -21 371 -21 q 640 7 563 -21 q 773 87 718 35 q 858 213 828 139 q 889 379 889 286 l 889 972 m 396 1354 l 217 1076 l 413 1076 l 465 1196 l 517 1076 l 713 1076 l 533 1354 l 396 1354 z "},"Ü":{"ha":931,"x_min":42,"x_max":889,"o":"m 889 972 l 625 972 l 625 379 q 582 248 625 294 q 467 201 539 201 q 350 248 394 201 q 306 379 306 294 l 306 972 l 42 972 l 42 379 q 72 213 42 286 q 158 87 103 139 q 292 7 214 35 q 467 -21 371 -21 q 640 7 563 -21 q 773 87 718 35 q 858 213 828 139 q 889 379 889 286 l 889 972 m 226 1194 q 253 1124 226 1150 q 324 1097 279 1097 q 394 1124 368 1097 q 421 1194 421 1150 q 394 1265 421 1239 q 324 1292 368 1292 q 253 1265 279 1292 q 226 1194 226 1239 m 510 1194 q 536 1124 510 1150 q 607 1097 563 1097 q 678 1124 651 1097 q 704 1194 704 1150 q 678 1265 704 1239 q 607 1292 651 1292 q 536 1265 563 1292 q 510 1194 510 1239 z "},"Ÿ":{"ha":954,"x_min":0,"x_max":954,"o":"m 593 540 l 311 972 l 0 972 l 346 442 l 544 442 l 593 540 m 601 454 l 954 972 l 674 972 l 389 554 l 493 454 l 601 454 m 346 0 l 610 0 l 610 499 l 346 499 l 346 0 m 239 1194 q 265 1124 239 1150 q 336 1097 292 1097 q 407 1124 381 1097 q 433 1194 433 1150 q 407 1265 433 1239 q 336 1292 381 1292 q 265 1265 292 1292 q 239 1194 239 1239 m 522 1194 q 549 1124 522 1150 q 619 1097 575 1097 q 690 1124 664 1097 q 717 1194 717 1150 q 690 1265 717 1239 q 619 1292 664 1292 q 549 1265 575 1292 q 522 1194 522 1239 z "},"Ý":{"ha":954,"x_min":0,"x_max":954,"o":"m 593 540 l 311 972 l 0 972 l 346 442 l 544 442 l 593 540 m 601 454 l 954 972 l 674 972 l 389 554 l 493 454 l 601 454 m 346 0 l 610 0 l 610 499 l 346 499 l 346 0 m 379 1075 l 639 1263 l 503 1399 l 315 1139 l 379 1075 z "},"Ž":{"ha":815,"x_min":42,"x_max":774,"o":"m 353 215 l 739 757 l 428 757 l 42 215 l 353 215 m 57 757 l 739 757 l 739 972 l 57 972 l 57 757 m 42 0 l 774 0 l 774 215 l 42 215 l 42 0 m 339 1076 l 476 1076 l 656 1354 l 460 1354 l 408 1235 l 356 1354 l 160 1354 l 339 1076 z "},"à":{"ha":817,"x_min":42,"x_max":789,"o":"m 539 0 l 789 0 l 789 694 l 539 694 l 539 0 m 42 347 q 67 197 42 264 q 136 81 93 129 q 235 6 179 32 q 350 -21 290 -21 q 435 -6 396 -21 q 502 40 474 10 q 546 113 531 69 q 561 213 561 157 l 561 478 q 546 581 561 536 q 503 655 531 625 q 438 700 476 685 q 350 715 399 715 q 235 689 290 715 q 136 614 179 663 q 67 498 93 565 q 42 347 42 431 m 299 347 q 308 413 299 383 q 332 463 317 442 q 370 495 347 483 q 419 507 393 507 q 469 495 447 507 q 506 463 490 483 q 531 413 522 442 q 539 347 539 383 q 531 282 539 311 q 506 232 522 253 q 469 199 490 211 q 419 188 447 188 q 370 199 393 188 q 332 232 347 211 q 308 282 317 253 q 299 347 299 311 m 514 818 l 578 882 l 390 1142 l 254 1006 l 514 818 z "},"á":{"ha":817,"x_min":42,"x_max":789,"o":"m 539 0 l 789 0 l 789 694 l 539 694 l 539 0 m 42 347 q 67 197 42 264 q 136 81 93 129 q 235 6 179 32 q 350 -21 290 -21 q 435 -6 396 -21 q 502 40 474 10 q 546 113 531 69 q 561 213 561 157 l 561 478 q 546 581 561 536 q 503 655 531 625 q 438 700 476 685 q 350 715 399 715 q 235 689 290 715 q 136 614 179 663 q 67 498 93 565 q 42 347 42 431 m 299 347 q 308 413 299 383 q 332 463 317 442 q 370 495 347 483 q 419 507 393 507 q 469 495 447 507 q 506 463 490 483 q 531 413 522 442 q 539 347 539 383 q 531 282 539 311 q 506 232 522 253 q 469 199 490 211 q 419 188 447 188 q 370 199 393 188 q 332 232 347 211 q 308 282 317 253 q 299 347 299 311 m 317 818 l 576 1006 l 440 1142 l 253 882 l 317 818 z "},"â":{"ha":817,"x_min":42,"x_max":789,"o":"m 539 0 l 789 0 l 789 694 l 539 694 l 539 0 m 42 347 q 67 197 42 264 q 136 81 93 129 q 235 6 179 32 q 350 -21 290 -21 q 435 -6 396 -21 q 502 40 474 10 q 546 113 531 69 q 561 213 561 157 l 561 478 q 546 581 561 536 q 503 655 531 625 q 438 700 476 685 q 350 715 399 715 q 235 689 290 715 q 136 614 179 663 q 67 498 93 565 q 42 347 42 431 m 299 347 q 308 413 299 383 q 332 463 317 442 q 370 495 347 483 q 419 507 393 507 q 469 495 447 507 q 506 463 490 483 q 531 413 522 442 q 539 347 539 383 q 531 282 539 311 q 506 232 522 253 q 469 199 490 211 q 419 188 447 188 q 370 199 393 188 q 332 232 347 211 q 308 282 317 253 q 299 347 299 311 m 346 1097 l 167 819 l 363 819 l 415 939 l 467 819 l 663 819 l 483 1097 l 346 1097 z "},"ã":{"ha":817,"x_min":42,"x_max":789,"o":"m 539 0 l 789 0 l 789 694 l 539 694 l 539 0 m 42 347 q 67 197 42 264 q 136 81 93 129 q 235 6 179 32 q 350 -21 290 -21 q 435 -6 396 -21 q 502 40 474 10 q 546 113 531 69 q 561 213 561 157 l 561 478 q 546 581 561 536 q 503 655 531 625 q 438 700 476 685 q 350 715 399 715 q 235 689 290 715 q 136 614 179 663 q 67 498 93 565 q 42 347 42 431 m 299 347 q 308 413 299 383 q 332 463 317 442 q 370 495 347 483 q 419 507 393 507 q 469 495 447 507 q 506 463 490 483 q 531 413 522 442 q 539 347 539 383 q 531 282 539 311 q 506 232 522 253 q 469 199 490 211 q 419 188 447 188 q 370 199 393 188 q 332 232 347 211 q 308 282 317 253 q 299 347 299 311 m 671 1040 l 588 1040 q 573 967 588 983 q 531 951 558 951 q 483 969 506 951 q 435 1008 460 988 q 382 1047 410 1029 q 321 1065 354 1065 q 263 1055 292 1065 q 210 1021 233 1044 q 174 958 188 997 q 160 860 160 918 l 243 860 q 266 937 243 919 q 322 954 289 954 q 371 936 349 954 q 417 897 393 918 q 468 858 440 876 q 535 840 496 840 q 634 885 597 840 q 671 1040 671 931 z "},"ä":{"ha":817,"x_min":42,"x_max":789,"o":"m 539 0 l 789 0 l 789 694 l 539 694 l 539 0 m 42 347 q 67 197 42 264 q 136 81 93 129 q 235 6 179 32 q 350 -21 290 -21 q 435 -6 396 -21 q 502 40 474 10 q 546 113 531 69 q 561 213 561 157 l 561 478 q 546 581 561 536 q 503 655 531 625 q 438 700 476 685 q 350 715 399 715 q 235 689 290 715 q 136 614 179 663 q 67 498 93 565 q 42 347 42 431 m 299 347 q 308 413 299 383 q 332 463 317 442 q 370 495 347 483 q 419 507 393 507 q 469 495 447 507 q 506 463 490 483 q 531 413 522 442 q 539 347 539 383 q 531 282 539 311 q 506 232 522 253 q 469 199 490 211 q 419 188 447 188 q 370 199 393 188 q 332 232 347 211 q 308 282 317 253 q 299 347 299 311 m 176 938 q 203 867 176 893 q 274 840 229 840 q 344 867 318 840 q 371 938 371 893 q 344 1008 371 982 q 274 1035 318 1035 q 203 1008 229 1035 q 176 938 176 982 m 460 938 q 486 867 460 893 q 557 840 513 840 q 628 867 601 840 q 654 938 654 893 q 628 1008 654 982 q 557 1035 601 1035 q 486 1008 513 1035 q 460 938 460 982 z "},"å":{"ha":817,"x_min":42,"x_max":789,"o":"m 539 0 l 789 0 l 789 694 l 539 694 l 539 0 m 42 347 q 67 197 42 264 q 136 81 93 129 q 235 6 179 32 q 350 -21 290 -21 q 435 -6 396 -21 q 502 40 474 10 q 546 113 531 69 q 561 213 561 157 l 561 478 q 546 581 561 536 q 503 655 531 625 q 438 700 476 685 q 350 715 399 715 q 235 689 290 715 q 136 614 179 663 q 67 498 93 565 q 42 347 42 431 m 299 347 q 308 413 299 383 q 332 463 317 442 q 370 495 347 483 q 419 507 393 507 q 469 495 447 507 q 506 463 490 483 q 531 413 522 442 q 539 347 539 383 q 531 282 539 311 q 506 232 522 253 q 469 199 490 211 q 419 188 447 188 q 370 199 393 188 q 332 232 347 211 q 308 282 317 253 q 299 347 299 311 m 417 931 q 373 942 389 931 q 357 972 357 953 q 373 1003 357 992 q 417 1014 389 1014 q 458 1003 443 1014 q 474 972 474 992 q 458 942 474 953 q 417 931 443 931 m 417 819 q 538 861 492 819 q 585 971 585 903 q 538 1083 585 1040 q 417 1125 492 1125 q 293 1083 340 1125 q 246 971 246 1040 q 293 861 246 903 q 417 819 340 819 z "},"ç":{"ha":758,"x_min":42,"x_max":717,"o":"m 546 263 q 492 202 522 217 q 429 188 461 188 q 369 199 394 188 q 329 232 344 210 q 306 287 314 254 q 299 361 299 319 q 309 432 299 404 q 337 476 319 460 q 376 500 354 493 q 418 507 397 507 q 480 490 451 507 q 524 444 508 472 l 694 556 q 579 672 656 628 q 399 715 503 715 q 256 690 322 715 q 143 617 190 665 q 69 501 96 569 q 42 347 42 433 q 69 197 42 264 q 144 81 96 129 q 261 6 193 32 q 413 -21 329 -21 q 597 18 528 -21 q 717 138 667 57 l 546 263 m 372 0 l 336 -115 q 367 -117 349 -115 q 401 -124 385 -119 q 428 -137 417 -129 q 440 -158 440 -146 q 434 -181 440 -172 q 418 -196 428 -190 q 397 -203 408 -201 q 372 -206 385 -206 q 347 -201 358 -206 q 329 -193 336 -197 q 313 -181 319 -187 l 257 -275 q 289 -296 271 -286 q 327 -310 306 -304 q 375 -317 349 -317 q 436 -310 406 -317 q 492 -289 467 -304 q 532 -248 517 -274 q 547 -185 547 -222 q 522 -105 547 -132 q 460 -68 496 -78 l 479 0 l 372 0 z "},"è":{"ha":774,"x_min":42,"x_max":732,"o":"m 110 288 l 654 288 l 654 433 l 110 433 l 110 288 m 413 -21 q 610 18 538 -21 q 732 138 682 57 l 561 263 q 497 206 533 224 q 421 189 461 189 q 369 201 392 189 q 330 235 346 213 q 306 292 314 258 q 299 372 299 326 q 330 497 299 458 q 399 535 361 535 q 440 524 422 535 q 471 492 458 513 q 490 444 483 472 q 496 379 496 415 l 496 288 l 725 288 l 725 358 q 699 503 725 438 q 626 615 672 568 q 517 689 581 663 q 378 715 453 715 q 240 689 301 715 q 134 614 178 663 q 66 498 90 565 q 42 347 42 431 q 69 193 42 261 q 147 77 97 125 q 265 4 197 29 q 413 -21 333 -21 m 486 818 l 550 882 l 363 1142 l 226 1006 l 486 818 z "},"é":{"ha":774,"x_min":42,"x_max":732,"o":"m 110 288 l 654 288 l 654 433 l 110 433 l 110 288 m 413 -21 q 610 18 538 -21 q 732 138 682 57 l 561 263 q 497 206 533 224 q 421 189 461 189 q 369 201 392 189 q 330 235 346 213 q 306 292 314 258 q 299 372 299 326 q 330 497 299 458 q 399 535 361 535 q 440 524 422 535 q 471 492 458 513 q 490 444 483 472 q 496 379 496 415 l 496 288 l 725 288 l 725 358 q 699 503 725 438 q 626 615 672 568 q 517 689 581 663 q 378 715 453 715 q 240 689 301 715 q 134 614 178 663 q 66 498 90 565 q 42 347 42 431 q 69 193 42 261 q 147 77 97 125 q 265 4 197 29 q 413 -21 333 -21 m 289 818 l 549 1006 l 413 1142 l 225 882 l 289 818 z "},"ê":{"ha":774,"x_min":42,"x_max":732,"o":"m 110 288 l 654 288 l 654 433 l 110 433 l 110 288 m 413 -21 q 610 18 538 -21 q 732 138 682 57 l 561 263 q 497 206 533 224 q 421 189 461 189 q 369 201 392 189 q 330 235 346 213 q 306 292 314 258 q 299 372 299 326 q 330 497 299 458 q 399 535 361 535 q 440 524 422 535 q 471 492 458 513 q 490 444 483 472 q 496 379 496 415 l 496 288 l 725 288 l 725 358 q 699 503 725 438 q 626 615 672 568 q 517 689 581 663 q 378 715 453 715 q 240 689 301 715 q 134 614 178 663 q 66 498 90 565 q 42 347 42 431 q 69 193 42 261 q 147 77 97 125 q 265 4 197 29 q 413 -21 333 -21 m 318 1097 l 139 819 l 335 819 l 388 939 l 439 819 l 635 819 l 456 1097 l 318 1097 z "},"ë":{"ha":774,"x_min":42,"x_max":732,"o":"m 110 288 l 654 288 l 654 433 l 110 433 l 110 288 m 413 -21 q 610 18 538 -21 q 732 138 682 57 l 561 263 q 497 206 533 224 q 421 189 461 189 q 369 201 392 189 q 330 235 346 213 q 306 292 314 258 q 299 372 299 326 q 330 497 299 458 q 399 535 361 535 q 440 524 422 535 q 471 492 458 513 q 490 444 483 472 q 496 379 496 415 l 496 288 l 725 288 l 725 358 q 699 503 725 438 q 626 615 672 568 q 517 689 581 663 q 378 715 453 715 q 240 689 301 715 q 134 614 178 663 q 66 498 90 565 q 42 347 42 431 q 69 193 42 261 q 147 77 97 125 q 265 4 197 29 q 413 -21 333 -21 m 149 938 q 175 867 149 893 q 246 840 201 840 q 317 867 290 840 q 343 938 343 893 q 317 1008 343 982 q 246 1035 290 1035 q 175 1008 201 1035 q 149 938 149 982 m 432 938 q 458 867 432 893 q 529 840 485 840 q 600 867 574 840 q 626 938 626 893 q 600 1008 626 982 q 529 1035 574 1035 q 458 1008 485 1035 q 432 938 432 982 z "},"ì":{"ha":333,"x_min":6,"x_max":329,"o":"m 42 0 l 292 0 l 292 694 l 42 694 l 42 0 m 265 797 l 329 861 l 142 1121 l 6 985 l 265 797 z "},"í":{"ha":333,"x_min":4,"x_max":328,"o":"m 42 0 l 292 0 l 292 694 l 42 694 l 42 0 m 68 797 l 328 985 l 192 1121 l 4 861 l 68 797 z "},"î":{"ha":333,"x_min":-82,"x_max":414,"o":"m 42 0 l 292 0 l 292 694 l 42 694 l 42 0 m 97 1076 l -82 799 l 114 799 l 167 918 l 218 799 l 414 799 l 235 1076 l 97 1076 z "},"ï":{"ha":333,"x_min":-72,"x_max":406,"o":"m 42 0 l 292 0 l 292 694 l 42 694 l 42 0 m -72 917 q -46 846 -72 872 q 25 819 -19 819 q 96 846 69 819 q 122 917 122 872 q 96 988 122 961 q 25 1014 69 1014 q -46 988 -19 1014 q -72 917 -72 961 m 211 917 q 238 846 211 872 q 308 819 264 819 q 379 846 353 819 q 406 917 406 872 q 379 988 406 961 q 308 1014 353 1014 q 238 988 264 1014 q 211 917 211 961 z "},"ñ":{"ha":786,"x_min":28,"x_max":744,"o":"m 744 407 q 720 549 744 490 q 655 644 696 607 q 562 698 614 681 q 454 715 510 715 q 373 699 410 715 q 310 651 336 682 q 270 574 285 619 q 256 469 256 528 l 256 347 l 278 347 q 307 463 278 419 q 383 507 336 507 q 427 495 407 507 q 463 463 447 483 q 486 413 478 442 q 494 347 494 383 l 494 0 l 744 0 l 744 407 m 278 0 l 278 694 l 28 694 l 28 0 l 278 0 m 642 1040 l 558 1040 q 544 967 558 983 q 501 951 529 951 q 453 969 476 951 q 406 1008 431 988 q 353 1047 381 1029 q 292 1065 325 1065 q 233 1055 263 1065 q 181 1021 204 1044 q 144 958 158 997 q 131 860 131 918 l 214 860 q 237 937 214 919 q 293 954 260 954 q 342 936 319 954 q 388 897 364 918 q 439 858 411 876 q 506 840 467 840 q 605 885 568 840 q 642 1040 642 931 z "},"ò":{"ha":819,"x_min":42,"x_max":778,"o":"m 42 347 q 68 197 42 264 q 143 81 94 129 q 259 6 192 32 q 410 -21 326 -21 q 560 6 493 -21 q 676 81 628 32 q 751 197 725 129 q 778 347 778 264 q 751 498 778 431 q 676 614 725 565 q 560 689 628 663 q 410 715 493 715 q 259 689 326 715 q 143 614 192 663 q 68 498 94 565 q 42 347 42 431 m 299 347 q 307 413 299 383 q 330 463 315 442 q 365 495 344 483 q 410 507 385 507 q 456 495 435 507 q 491 463 476 483 q 513 413 506 442 q 521 347 521 383 q 513 282 521 311 q 491 232 506 253 q 456 199 476 211 q 410 188 435 188 q 365 199 385 188 q 330 232 344 211 q 307 282 315 253 q 299 347 299 311 m 508 818 l 572 882 l 385 1142 l 249 1006 l 508 818 z "},"ó":{"ha":819,"x_min":42,"x_max":778,"o":"m 42 347 q 68 197 42 264 q 143 81 94 129 q 259 6 192 32 q 410 -21 326 -21 q 560 6 493 -21 q 676 81 628 32 q 751 197 725 129 q 778 347 778 264 q 751 498 778 431 q 676 614 725 565 q 560 689 628 663 q 410 715 493 715 q 259 689 326 715 q 143 614 192 663 q 68 498 94 565 q 42 347 42 431 m 299 347 q 307 413 299 383 q 330 463 315 442 q 365 495 344 483 q 410 507 385 507 q 456 495 435 507 q 491 463 476 483 q 513 413 506 442 q 521 347 521 383 q 513 282 521 311 q 491 232 506 253 q 456 199 476 211 q 410 188 435 188 q 365 199 385 188 q 330 232 344 211 q 307 282 315 253 q 299 347 299 311 m 311 818 l 571 1006 l 435 1142 l 247 882 l 311 818 z "},"ô":{"ha":819,"x_min":42,"x_max":778,"o":"m 42 347 q 68 197 42 264 q 143 81 94 129 q 259 6 192 32 q 410 -21 326 -21 q 560 6 493 -21 q 676 81 628 32 q 751 197 725 129 q 778 347 778 264 q 751 498 778 431 q 676 614 725 565 q 560 689 628 663 q 410 715 493 715 q 259 689 326 715 q 143 614 192 663 q 68 498 94 565 q 42 347 42 431 m 299 347 q 307 413 299 383 q 330 463 315 442 q 365 495 344 483 q 410 507 385 507 q 456 495 435 507 q 491 463 476 483 q 513 413 506 442 q 521 347 521 383 q 513 282 521 311 q 491 232 506 253 q 456 199 476 211 q 410 188 435 188 q 365 199 385 188 q 330 232 344 211 q 307 282 315 253 q 299 347 299 311 m 340 1097 l 161 819 l 357 819 l 410 939 l 461 819 l 657 819 l 478 1097 l 340 1097 z "},"õ":{"ha":819,"x_min":42,"x_max":778,"o":"m 42 347 q 68 197 42 264 q 143 81 94 129 q 259 6 192 32 q 410 -21 326 -21 q 560 6 493 -21 q 676 81 628 32 q 751 197 725 129 q 778 347 778 264 q 751 498 778 431 q 676 614 725 565 q 560 689 628 663 q 410 715 493 715 q 259 689 326 715 q 143 614 192 663 q 68 498 94 565 q 42 347 42 431 m 299 347 q 307 413 299 383 q 330 463 315 442 q 365 495 344 483 q 410 507 385 507 q 456 495 435 507 q 491 463 476 483 q 513 413 506 442 q 521 347 521 383 q 513 282 521 311 q 491 232 506 253 q 456 199 476 211 q 410 188 435 188 q 365 199 385 188 q 330 232 344 211 q 307 282 315 253 q 299 347 299 311 m 665 1040 l 582 1040 q 567 967 582 983 q 525 951 553 951 q 477 969 500 951 q 429 1008 454 988 q 376 1047 404 1029 q 315 1065 349 1065 q 257 1055 286 1065 q 205 1021 228 1044 q 168 958 182 997 q 154 860 154 918 l 238 860 q 260 937 238 919 q 317 954 283 954 q 365 936 343 954 q 411 897 388 918 q 463 858 435 876 q 529 840 490 840 q 628 885 592 840 q 665 1040 665 931 z "},"ö":{"ha":819,"x_min":42,"x_max":778,"o":"m 42 347 q 68 197 42 264 q 143 81 94 129 q 259 6 192 32 q 410 -21 326 -21 q 560 6 493 -21 q 676 81 628 32 q 751 197 725 129 q 778 347 778 264 q 751 498 778 431 q 676 614 725 565 q 560 689 628 663 q 410 715 493 715 q 259 689 326 715 q 143 614 192 663 q 68 498 94 565 q 42 347 42 431 m 299 347 q 307 413 299 383 q 330 463 315 442 q 365 495 344 483 q 410 507 385 507 q 456 495 435 507 q 491 463 476 483 q 513 413 506 442 q 521 347 521 383 q 513 282 521 311 q 491 232 506 253 q 456 199 476 211 q 410 188 435 188 q 365 199 385 188 q 330 232 344 211 q 307 282 315 253 q 299 347 299 311 m 171 938 q 197 867 171 893 q 268 840 224 840 q 339 867 313 840 q 365 938 365 893 q 339 1008 365 982 q 268 1035 313 1035 q 197 1008 224 1035 q 171 938 171 982 m 454 938 q 481 867 454 893 q 551 840 507 840 q 622 867 596 840 q 649 938 649 893 q 622 1008 649 982 q 551 1035 596 1035 q 481 1008 507 1035 q 454 938 454 982 z "},"š":{"ha":717,"x_min":42,"x_max":675,"o":"m 304 251 q 375 236 344 242 q 426 226 406 231 q 456 215 446 221 q 467 200 467 210 q 455 183 467 189 q 426 173 443 176 q 390 168 408 169 q 360 167 372 167 q 315 169 339 167 q 267 180 292 172 q 220 200 243 188 q 179 232 197 213 l 42 103 q 194 6 113 32 q 364 -21 275 -21 q 494 -1 436 -21 q 592 51 551 18 q 653 131 632 85 q 675 231 675 176 q 660 304 675 271 q 615 365 646 338 q 535 415 583 393 q 418 456 486 438 q 356 471 381 465 q 315 481 331 476 q 292 492 299 486 q 285 507 285 497 q 292 520 285 515 q 309 528 299 525 q 333 532 319 531 q 360 533 346 533 q 457 517 413 533 q 526 482 501 501 l 649 615 q 531 688 604 663 q 369 714 458 714 q 247 697 301 714 q 155 648 193 679 q 97 574 117 617 q 76 479 76 531 q 136 330 76 382 q 304 251 196 278 m 289 818 l 426 818 l 606 1096 l 410 1096 l 358 976 l 306 1096 l 110 1096 l 289 818 z "},"ù":{"ha":786,"x_min":42,"x_max":758,"o":"m 42 288 q 66 146 42 204 q 131 51 90 88 q 224 -3 172 14 q 332 -21 276 -21 q 413 -4 376 -21 q 476 44 450 13 q 517 121 503 75 q 531 225 531 167 l 531 347 l 508 347 q 480 231 508 275 q 403 188 451 188 q 359 199 379 188 q 324 232 339 211 q 300 282 308 253 q 292 347 292 311 l 292 694 l 42 694 l 42 288 m 508 694 l 508 0 l 758 0 l 758 694 l 508 694 m 499 797 l 563 861 l 375 1121 l 239 985 l 499 797 z "},"ú":{"ha":786,"x_min":42,"x_max":758,"o":"m 42 288 q 66 146 42 204 q 131 51 90 88 q 224 -3 172 14 q 332 -21 276 -21 q 413 -4 376 -21 q 476 44 450 13 q 517 121 503 75 q 531 225 531 167 l 531 347 l 508 347 q 480 231 508 275 q 403 188 451 188 q 359 199 379 188 q 324 232 339 211 q 300 282 308 253 q 292 347 292 311 l 292 694 l 42 694 l 42 288 m 508 694 l 508 0 l 758 0 l 758 694 l 508 694 m 301 797 l 561 985 l 425 1121 l 238 861 l 301 797 z "},"û":{"ha":786,"x_min":42,"x_max":758,"o":"m 42 288 q 66 146 42 204 q 131 51 90 88 q 224 -3 172 14 q 332 -21 276 -21 q 413 -4 376 -21 q 476 44 450 13 q 517 121 503 75 q 531 225 531 167 l 531 347 l 508 347 q 480 231 508 275 q 403 188 451 188 q 359 199 379 188 q 324 232 339 211 q 300 282 308 253 q 292 347 292 311 l 292 694 l 42 694 l 42 288 m 508 694 l 508 0 l 758 0 l 758 694 l 508 694 m 331 1076 l 151 799 l 347 799 l 400 918 l 451 799 l 647 799 l 468 1076 l 331 1076 z "},"ü":{"ha":786,"x_min":42,"x_max":758,"o":"m 42 288 q 66 146 42 204 q 131 51 90 88 q 224 -3 172 14 q 332 -21 276 -21 q 413 -4 376 -21 q 476 44 450 13 q 517 121 503 75 q 531 225 531 167 l 531 347 l 508 347 q 480 231 508 275 q 403 188 451 188 q 359 199 379 188 q 324 232 339 211 q 300 282 308 253 q 292 347 292 311 l 292 694 l 42 694 l 42 288 m 508 694 l 508 0 l 758 0 l 758 694 l 508 694 m 161 917 q 188 846 161 872 q 258 819 214 819 q 329 846 303 819 q 356 917 356 872 q 329 988 356 961 q 258 1014 303 1014 q 188 988 214 1014 q 161 917 161 961 m 444 917 q 471 846 444 872 q 542 819 497 819 q 613 846 586 819 q 639 917 639 872 q 613 988 639 961 q 542 1014 586 1014 q 471 988 497 1014 q 444 917 444 961 z "},"ý":{"ha":763,"x_min":0,"x_max":763,"o":"m 536 101 l 763 694 l 506 694 l 294 125 q 274 65 285 99 q 249 0 263 31 q 217 -52 235 -31 q 176 -74 200 -74 q 135 -66 157 -74 q 92 -33 114 -58 l 0 -218 q 100 -266 49 -250 q 199 -282 151 -282 q 319 -251 268 -282 q 408 -167 369 -219 q 477 -44 447 -114 q 536 101 507 25 m 285 10 l 422 10 l 485 163 l 285 694 l 28 694 l 285 10 m 283 797 l 543 985 l 407 1121 l 219 861 l 283 797 z "},"ÿ":{"ha":763,"x_min":0,"x_max":763,"o":"m 536 101 l 763 694 l 506 694 l 294 125 q 274 65 285 99 q 249 0 263 31 q 217 -52 235 -31 q 176 -74 200 -74 q 135 -66 157 -74 q 92 -33 114 -58 l 0 -218 q 100 -266 49 -250 q 199 -282 151 -282 q 319 -251 268 -282 q 408 -167 369 -219 q 477 -44 447 -114 q 536 101 507 25 m 285 10 l 422 10 l 485 163 l 285 694 l 28 694 l 285 10 m 143 917 q 169 846 143 872 q 240 819 196 819 q 311 846 285 819 q 338 917 338 872 q 311 988 338 961 q 240 1014 285 1014 q 169 988 196 1014 q 143 917 143 961 m 426 917 q 453 846 426 872 q 524 819 479 819 q 594 846 568 819 q 621 917 621 872 q 594 988 621 961 q 524 1014 568 1014 q 453 988 479 1014 q 426 917 426 961 z "},"ž":{"ha":685,"x_min":28,"x_max":657,"o":"m 632 486 l 428 607 l 28 208 l 233 89 l 632 486 m 38 486 l 632 486 l 632 694 l 38 694 l 38 486 m 28 0 l 657 0 l 657 208 l 28 208 l 28 0 m 274 799 l 411 799 l 590 1076 l 394 1076 l 343 957 l 290 1076 l 94 1076 l 274 799 z "}}}
